<?xml version="1.0" encoding="utf-8"?>
<!-- Generator: Adobe Illustrator 19.2.1, SVG Export Plug-In . SVG Version: 6.00 Build 0)  -->
<svg version="1.1" id="layer" xmlns="http://www.w3.org/2000/svg" xmlns:xlink="http://www.w3.org/1999/xlink" x="0px" y="0px"
	 viewBox="0 0 652 652" style="enable-background:new 0 0 652 652;" xml:space="preserve">
<path d="M138.8,303.5c-16.4,0-17.3-11.3-17.3-28.9c0-16,0.6-28.9,17.8-28.9c11.3,0,15.7,5.5,15.7,16.1v1.2h-8.5v-1
	c0-4.7-1-9.8-7.4-9.8c-8.4,0-8.8,8.6-8.8,21.9c0,15.9,0.6,22.9,8.5,22.9c7.1,0,8.1-5.4,8.1-10.9v-1.2h8.6v1.5
	C155.3,297.9,150.1,303.5,138.8,303.5 M181.9,274.2c-0.4-3.2-1.6-5.9-5.3-5.9c-3.8,0-5.4,2.5-5.8,6.2c-0.2,1.6-0.3,3.1-0.3,4.9h11.6
	C182.1,277.6,182.1,276,181.9,274.2L181.9,274.2z M170.5,284.2v3.1c0,6.6,0.9,10.8,5.9,10.8c4.8,0,5.7-4,5.8-8h7.6
	c-0.4,8.9-4,13.4-13.4,13.4c-12.7,0-13.9-8.8-13.9-19.4c0-10.5,1.2-21.3,14.4-21.3c10.5,0,12.7,6.6,13.1,14.9
	c0.1,2.1,0.1,4.3,0.1,6.5C190,284.2,170.5,284.2,170.5,284.2z M219.1,302.5v-25.4c0-4.2-0.1-8.7-5.1-8.7c-4.8,0-6.4,5.5-6.4,9.4
	v24.7h-8v-31.4c0-2.5-0.1-4.8-0.3-7.3h8.1v4.7c1.8-3.1,5.2-5.6,9.7-5.6c7.7,0,10,5.2,10,12v27.6H219.1 M249.6,303.2
	c-7.9,0-10-2.6-10-10.2v-23.6h-5.4v-5.5h5.4V257l8-3.4v10.3h6.5v5.5h-6.5V292c0,3.9,0.7,5.3,4.2,5.3c0.8,0,1.8-0.1,2.7-0.2v5.8
	C253,303.1,251.3,303.2,249.6,303.2 M278.5,270.1c-6.1,0-8.5,3.9-8.5,9.6v22.8h-8v-31.8c0-1-0.2-6-0.3-7h7.6l0.2,5.1
	c2.2-4.2,5.7-5.9,9.6-5.9c0.2,0,0.5,0,0.8,0.1v7.3C279.6,270.2,278.9,270.1,278.5,270.1 M304,274.2c-0.4-3.2-1.6-5.9-5.3-5.9
	c-3.8,0-5.4,2.5-5.8,6.2c-0.2,1.6-0.3,3.1-0.3,4.9h11.6C304.1,277.6,304.2,276,304,274.2L304,274.2z M292.5,284.2v3.1
	c0,6.6,0.9,10.8,5.9,10.8c4.8,0,5.7-4,5.8-8h7.6c-0.4,8.9-4,13.4-13.4,13.4c-12.7,0-13.9-8.8-13.9-19.4c0-10.5,1.2-21.3,14.4-21.3
	c10.5,0,12.7,6.6,13.1,14.9c0.1,2.1,0.1,4.3,0.1,6.5C312,284.2,292.5,284.2,292.5,284.2z M34.5,331.1h-4.4v18.6h4
	c7.1,0,10.1-2,10.1-9.5C44.2,332.9,41.2,331.1,34.5,331.1z M34.8,356.2h-4.7v24.1h-8.6v-55.7h14.8c11.2,0,16.6,3.5,16.6,15.4
	C52.9,354.5,45.6,356.2,34.8,356.2z M78.7,357.7c0-5.4,0.1-11.9-6-11.9c-6.4,0-6.3,7.5-6.3,12v6.7c0,4.6-0.1,11,6.2,11
	c6,0,6.1-6.1,6.1-10.7V357.7z M72.6,381c-13.2,0-14.3-8.2-14.3-20.2c0-11,1.5-20.5,14.6-20.5c12.9,0,13.9,8,13.9,19.6
	C86.8,372.7,85.3,381,72.6,381z M133.1,380.3v-26.2c0-3.8-0.1-7.8-4.7-7.8c-4.5,0-5.8,4.8-5.8,8.7v25.3h-8V354
	c0-4.5-0.2-7.8-4.5-7.8c-4.9,0-5.9,6.1-5.9,9.4v24.6h-8v-32.8c0-2-0.1-3.9-0.3-5.9h8v4.6c1.9-3.2,5.4-5.5,9.3-5.5
	c5.6,0,7.6,2.6,8.6,5.6c2.2-2.9,5.3-5.6,9.7-5.6c8.7,0,9.7,6.9,9.7,13.1v26.5H133.1 M166.4,346.1c-6.3,0-6.4,8.6-6.4,15.3
	c0,7,0.5,14.2,6.4,14.2c5.8,0,5.9-9.6,5.9-15.4C172.2,353.3,172,346.1,166.4,346.1L166.4,346.1z M168.8,381.2
	c-3.8,0-6.6-1.2-8.7-4.2v18.4h-8v-44.6c0-1.3-0.2-7.8-0.3-9.1h7.9l0.1,4.3c2.2-3.5,5.9-5.2,9.7-5.2c10.4,0,10.9,9.4,10.9,19.9
	C180.3,370.9,179.6,381.2,168.8,381.2L168.8,381.2z M189.8,380.3h7.9v-38.8h-7.9V380.3z M189.6,332.9h8.2v-7.5h-8.2V332.9z
	 M221.2,346c-5.6,0-6,7.3-6,15c0,7,0.6,14.6,5.9,14.6c5.9,0,6.2-7.6,6.2-14.3C227.4,353.6,227,346,221.2,346L221.2,346z
	 M227.9,380.3l-0.2-4.3c-2.2,3.5-5,5-9.1,5c-10.7,0-11.6-10.4-11.6-20.2c0-10.6,1.2-20.3,11.2-20.3c4.2,0,6.9,1.4,9,4.5v-20.5h8
	v48.5c0,1.1,0.2,6.1,0.3,7.2H227.9L227.9,380.3z M265.4,357.7c0-5.4,0.1-11.9-6-11.9c-6.4,0-6.3,7.5-6.3,12v6.7c0,4.6-0.1,11,6.2,11
	c6,0,6.1-6.1,6.1-10.7V357.7z M259.3,381c-13.2,0-14.3-8.2-14.3-20.2c0-11,1.5-20.5,14.6-20.5c12.9,0,13.9,8,13.9,19.6
	C273.5,372.7,272,381,259.3,381L259.3,381z M302.5,380.3l-0.1-4.5c-2.2,3.5-5.3,5.2-9.5,5.2c-7.3,0-10.2-4.2-10.2-11.4v-28.2h8v25.5
	c0,3.9,0.1,8.7,5.2,8.7c5.2,0,6.3-5.3,6.3-9.6v-24.6h8V373c0,2.7,0.2,4.8,0.3,7.3H302.5 M621.5,263.9l-233.4,0v12.9h172.6l-16,12.9
	H388.1v12.9h110.2l-16,12.9h-94.2v12.9h48l-16,12.9h-32v12.9h36.3l32-25.9h30.2l32-25.9h30.4l32-25.9l40.7,0V263.9 M621.5,367.3
	H448.7l16-13h156.8v-12.9H510.9l16-13h94.6v-12.9h-48.3l16-13h32.3l0-13l-36.5,0l-32,25.9h-30.4l-32,25.9h-30.2l-32,25.9h-40.4v12.9
	h233.4V367.3"/>
</svg>
