<?xml version="1.0" encoding="UTF-8" standalone="yes"?>

<!-- created by libisp v5.0.2 - 18/11/2019 - 13h21m41s -->

<svg version="1.1" id="Layer_1" xmlns="http://www.w3.org/2000/svg"
     xmlns:xlink="http://www.w3.org/1999/xlink" width="512" height="512"
     viewBox="0 0 512 512" overflow="visible" enable-background="new 0 0 512 512"
     xml:space="preserve">
  <path fill="#555555" stroke="none" d="M437.02,74.98C388.667,26.629,324.38,0,256,0S123.332,26.629,74.98,74.98C26.629,123.333,0,187.62,0,256s26.629,132.667,74.98,181.02C123.332,485.371,187.62,512,256,512s132.667-26.629,181.02-74.98C485.371,388.667,512,324.38,512,256S485.371,123.333,437.02,74.98z M256,482C131.383,482,30,380.617,30,256S131.383,30,256,30s226,101.383,226,226S380.617,482,256,482z"/>
  <path fill="#555555" stroke="none" d="M425.795,247.706C421.455,157.805,346.957,86,256,86v30c74.411,0,135.44,58.356,139.748,131.706l-32.352-0.001l47.603,72.763l47.606-72.761L425.795,247.706z"/>
  <path fill="#555555" stroke="none" d="M375.742,328.541c-38.559,63.641-120.092,85.603-185.058,51.282l16.764-27.671l-86.899,3.013l37.565,78.418l17.011-28.078c25.523,13.826,53.2,20.456,80.594,20.456c57.537,0,113.753-29.174,145.681-81.875L375.742,328.541z"/>
  <path fill="#555555" stroke="none" d="M150.105,83.074l15.975,28.657C89.67,159.297,63.226,259.33,107.515,338.776l26.203-14.607c-36.233-64.994-14.978-146.715,46.991-186.193l15.753,28.259l40.376-77.008L150.105,83.074z"/>
</svg>
