<?xml version="1.0" encoding="utf-8"?>
<!-- Svg Vector Icons : http://www.onlinewebfonts.com/icon -->
<!DOCTYPE svg PUBLIC "-//W3C//DTD SVG 1.1//EN" "http://www.w3.org/Graphics/SVG/1.1/DTD/svg11.dtd">
<svg version="1.1" xmlns="http://www.w3.org/2000/svg" xmlns:xlink="http://www.w3.org/1999/xlink" x="0px" y="0px" viewBox="0 0 1000 1000" enable-background="new 0 0 1000 1000" xml:space="preserve">
<metadata> Svg Vector Icons : http://www.onlinewebfonts.com/icon </metadata>
<g><g transform="translate(0.000000,511.000000) scale(0.100000,-0.100000)"><path d="M4646,2752.5C2993.6,2624.2,1486.6,1601.8,692,69.9c-356.1-687.4-547.6-1390.1-585.9-2156c-11.5-206.8-7.7-252.8,19.2-306.4c63.2-120.6-122.5-111.1,2921.9-135.9c4013.3-30.7,6646.1-28.7,6730.4,5.7c113,47.9,132.1,114.9,118.7,405.9c-93.8,1955-1235,3666.8-2975.5,4465.2c-503.6,229.8-1037.8,363.8-1623.7,405.9C5000.2,2775.5,4927.5,2775.5,4646,2752.5z M4789.6,1940.7c0-314,5.7-428.9,26.8-478.7c28.7-67,113-124.5,183.8-124.5c70.9,0,155.1,57.4,183.8,124.5c21.1,49.8,26.8,164.7,26.8,478.7v413.6l120.6-11.5c250.8-24.9,430.8-51.7,597.4-86.2c210.6-46,622.3-174.2,622.3-193.4c0-9.6-72.8-162.8-162.8-344.7c-90-180-162.8-348.5-162.8-373.4c0-65.1,49.8-155.1,97.6-181.9c59.4-30.6,164.7-26.8,218.3,9.6c30.6,21.1,109.1,155.1,220.2,375.3c95.7,189.6,181.9,344.7,191.5,344.7c84.3,0,938.2-574.4,938.2-630c0-5.7-134-145.5-298.7-308.3c-164.7-162.8-312.1-325.5-327.4-360c-55.5-130.2,44-271.9,191.5-271.9c74.7,0,90,11.5,409.8,329.3L8196,981.4l82.3-93.8c203-227.9,409.8-513.2,568.7-779.3l42.1-70.8L8506.2-156c-400.2-199.1-442.3-233.6-442.3-348.5c0-74.7,67-162.8,141.7-187.6c67-21.1,82.3-17.2,323.6,97.7c137.9,65.1,315.9,153.2,392.5,195.3c76.6,40.2,143.6,72.8,147.4,67c32.6-32.5,258.5-693.1,258.5-754.4c0-23-199.1-26.8-1240.8-26.8H6844.1L6815.4-964c-95.7,478.7-436.6,955.5-869.3,1215.9C5762.3,361,5484.7,462.5,5281.7,495c-185.7,30.6-551.5,15.3-721.9-30.6c-517-135.9-989.9-518.9-1229.3-993.8c-59.4-116.8-139.8-369.6-157-492.1l-13.4-91.9H1915.6c-1018.7,0-1242.7,3.8-1242.7,24.9c0,46,93.8,342.7,174.3,553.4l78.5,204.9l348.5-174.3c189.6-95.7,369.5-180,398.3-189.5c122.6-34.5,264.2,67,264.2,189.5c0,114.9-42.1,149.4-442.3,348.5l-383,193.4l42.1,70.8c172.3,287.2,348.5,526.6,591.7,808l57.4,65.1L2133.8,652c317.9-315.9,335.1-329.3,407.9-329.3c91.9,0,157,42.1,191.5,124.5c47.9,114.9,15.3,164.7-317.9,497.8c-168.5,168.5-306.4,312.1-306.4,319.8c0,19.1,327.4,271.9,480.6,369.5c170.4,111,432.7,258.5,457.6,258.5c9.6,0,95.7-155.1,191.5-344.7c181.9-363.8,216.4-405.9,333.2-405.9c113,0,203,90,203,203c0,24.9-72.8,193.4-162.8,373.4c-90,181.9-162.8,335.1-162.8,344.7c0,23,425.1,151.3,675.9,203c197.2,38.3,450,72.8,622.3,84.2l42.1,1.9V1940.7z M5421.5,54.6c381-107.2,700.8-371.5,869.3-718c65.1-132.1,126.4-333.2,126.4-409.7v-40.2H4998.3H3577.6l11.5,86.2C3640.8-655.7,3935.6-246,4282.2-66c153.2,78.5,298.7,130.2,465.3,158.9C4896.8,121.7,5260.7,100.6,5421.5,54.6z M9431-1576.8c17.2-103.4,49.8-402.1,49.8-478.7v-72.8H6786.7c-2818.5,1.9-6242.1,26.8-6261.3,46c-11.5,11.5,26.8,444.2,46,524.6l9.6,42.1h4419.3h4419.3L9431-1576.8z"/></g></g>
</svg>