<?xml version="1.0" encoding="UTF-8"?>
<svg width="752pt" height="752pt" version="1.1" viewBox="0 0 752 752" xmlns="http://www.w3.org/2000/svg">
 <g>
  <path d="m371.88 162.39-217.21 376.3h442.62l-221.3-383.41zm206.08 362.41-2.3672 4.1016 0.54297 0.31641h-400.33l0.54297-0.3125-2.3672-4.1016-0.55469 0.32031 200.18-346.79v0.63281h4.7344v-0.63281l200.17 346.79z"/>
  <path d="m202.7 508.24 12.305-7.1016 2.3672 4.1016-12.305 7.1016z"/>
  <path d="m284.73 460.9 12.305-7.1016 2.3672 4.1016-12.305 7.1016z"/>
  <path d="m182.19 520.07 12.305-7.1016 2.3672 4.1016-12.305 7.1016z"/>
  <path d="m223.21 496.41 12.305-7.1016 2.3672 4.1016-12.305 7.1016z"/>
  <path d="m264.23 472.73 12.305-7.1016 2.3672 4.1016-12.305 7.1016z"/>
  <path d="m325.75 437.23 12.305-7.1016 2.3672 4.1016-12.305 7.1016z"/>
  <path d="m305.24 449.07 12.305-7.1016 2.3672 4.1016-12.305 7.1016z"/>
  <path d="m243.71 484.57 12.305-7.1016 2.3672 4.1016-12.305 7.1016z"/>
  <path d="m346.26 425.39 12.305-7.1016 2.3672 4.1016-12.305 7.1016z"/>
  <path d="m473.05 469.73 2.3672-4.1016 12.305 7.1016-2.3672 4.1016z"/>
  <path d="m411.52 434.23 2.3672-4.1016 12.305 7.1016-2.3672 4.1016z"/>
  <path d="m493.55 481.57 2.3672-4.1016 12.305 7.1016-2.3672 4.1016z"/>
  <path d="m432.03 446.06 2.3672-4.1016 12.305 7.1016-2.3672 4.1016z"/>
  <path d="m534.57 505.24 2.3672-4.1016 12.305 7.1016-2.3672 4.1016z"/>
  <path d="m555.08 517.07 2.3672-4.1016 12.305 7.1016-2.3672 4.1016z"/>
  <path d="m514.06 493.41 2.3672-4.1016 12.305 7.1016-2.3672 4.1016z"/>
  <path d="m391.01 422.39 2.3672-4.1016 12.305 7.1016-2.3672 4.1016z"/>
  <path d="m452.54 457.9 2.3672-4.1016 12.305 7.1016-2.3672 4.1016z"/>
  <path d="m373.61 306.84h4.7344v14.207h-4.7344z"/>
  <path d="m373.61 283.16h4.7344v14.207h-4.7344z"/>
  <path d="m373.61 330.52h4.7344v14.207h-4.7344z"/>
  <path d="m373.61 354.2h4.7344v14.207h-4.7344z"/>
  <path d="m373.61 377.88h4.7344v14.207h-4.7344z"/>
  <path d="m373.61 212.12h4.7344v14.207h-4.7344z"/>
  <path d="m373.61 188.44h4.7344v14.207h-4.7344z"/>
  <path d="m373.61 259.48h4.7344v14.207h-4.7344z"/>
  <path d="m378.34 401.55h-4.7344v8.0664l-6.8398 3.9453 2.3711 4.1016 6.8359-3.9453 6.832 3.9375 2.3672-4.1016-6.832-3.9375z"/>
  <path d="m373.61 235.8h4.7344v14.207h-4.7344z"/>
 </g>
</svg>
