<?xml version="1.0" encoding="UTF-8" standalone="yes"?>

<!-- created by libisp v5.0.2 - 18/11/2019 - 13h21m41s -->

<svg version="1.1" id="Layer_1" xmlns="http://www.w3.org/2000/svg"
     xmlns:xlink="http://www.w3.org/1999/xlink" width="1000" height="1000"
     viewBox="0 0 1000 1000" overflow="visible" enable-background="new 0 0 1000 1000"
     xml:space="preserve">
  <path fill="#555555" d="M538.8,435.9l227.1-202.1L565.3,463.4c6.1,10.9,9.9,23.2,9.9,36.6c0,41.5-33.7,75.1-75.2,75.1c-41.5,0-75.2-33.6-75.2-75.1c0-41.5,33.6-75.2,75.2-75.2C514.3,424.8,527.4,429,538.8,435.9z M990,500c0,270.2-219.8,490-490,490C229.8,990,10,770.2,10,500C10,229.8,229.8,10,500,10C770.2,10,990,229.8,990,500z M882.7,666.2l-61.6-25l7.2-17.8l61.3,25c15.4-40.5,24.7-83.9,26.7-129.1h-65.8v-38.4h65.8c-2.2-47.1-11.9-92.1-28.5-133.9l-61.2,25.7l-7.4-17.7l61.2-25.7c-42.6-94.5-119.2-170.5-214.3-212l-25.1,61.6l-17.7-7.2l25-61.3C608,94.8,564.5,85.6,519.2,83.5v65.8h-38.3V83.5c-47.1,2.1-92.1,12-133.9,28.5l25.7,61.1l-17.7,7.4l-25.7-61.1c-40.6,18.3-77.6,43-110.1,72.6l46.5,46.5l-27.1,27.1l-46.5-46.5c-30.8,33.7-56.3,72.3-74.8,114.6l61.6,25l-7.2,17.8l-61.3-25c-15.5,40.4-24.7,83.8-26.8,129.1h65.8v38.3H83.5c2.1,47.1,12,92.1,28.5,133.9l61.1-25.7l7.4,17.7l-61.1,25.7c18.3,40.6,42.9,77.6,72.6,110.1l46.5-46.4l27.1,27.1l-46.5,46.4c74.2,67.8,172.6,109.6,280.8,109.6c108.2,0,206.5-41.7,280.8-109.6l-46.4-46.4l27.1-27.1l46.4,46.4C838.7,747.1,864.3,708.6,882.7,666.2z M361.6,761.6h276.9v-54.4H361.6V761.6z"/>
</svg>
