<?xml version="1.0" encoding="UTF-8"?>
<svg width="752pt" height="752pt" version="1.1" viewBox="0 0 752 752" xmlns="http://www.w3.org/2000/svg">
 <g>
  <path d="m500.32 204.56 2.3945-1.4219 86.211 145.03-2.3945 1.4219z"/>
  <path d="m254.32 444.33c-0.38672-0.66797-0.13672-1.5156 0.53125-1.8945s1.5195-0.14062 1.8945 0.53125c0.37891 0.66797 0.14062 1.5156-0.53125 1.8945-0.22266 0.125-0.46094 0.17969-0.68359 0.17969-0.48438 0-0.96094-0.24609-1.2109-0.71094zm-3.9102-1.75c-0.51562-0.57422-0.46094-1.4492 0.11328-1.9648 0.57422-0.51562 1.4492-0.47266 1.9648 0.097657 0.51562 0.58203 0.47266 1.4648-0.097657 1.9766-0.26562 0.23828-0.59766 0.35156-0.93359 0.35156-0.39453-0.003906-0.76953-0.15234-1.0469-0.46094zm8.7695-0.97656c-0.375-0.66797-0.13672-1.5156 0.53125-1.8945 0.66797-0.37891 1.5156-0.12891 1.8945 0.54297 0.375 0.66797 0.13672 1.5156-0.53125 1.8945-0.22266 0.10938-0.46094 0.17969-0.68359 0.17969-0.48828 0.003906-0.96094-0.26172-1.2109-0.72266zm4.8594-2.7148c-0.37891-0.66797-0.14062-1.5156 0.53125-1.8945 0.66797-0.37891 1.5156-0.14063 1.8945 0.53125 0.375 0.68359 0.13672 1.5312-0.53125 1.9102-0.22266 0.11328-0.44531 0.16406-0.68359 0.16406-0.48828 0-0.96094-0.25-1.2109-0.71094zm-17.348-0.44531c-0.53125-0.57422-0.47266-1.4492 0.097657-1.9648 0.56641-0.51562 1.4453-0.47266 1.9609 0.097657 0.51562 0.56641 0.47266 1.4648-0.09375 1.9766-0.26562 0.23828-0.60156 0.35156-0.93359 0.35156-0.37891 0-0.76562-0.15234-1.0312-0.46094zm22.211-2.2656c-0.37891-0.66797-0.14062-1.5195 0.53125-1.8945 0.66797-0.37891 1.5156-0.13672 1.8945 0.53125 0.37891 0.66797 0.14062 1.5156-0.53125 1.8945-0.22266 0.125-0.46094 0.17969-0.68359 0.17969-0.49219 0-0.96484-0.26562-1.2109-0.71094zm-25.941-1.8672c-0.51562-0.56641-0.47266-1.4492 0.09375-1.9609 0.57422-0.51562 1.4492-0.47266 1.9648 0.09375 0.51562 0.57422 0.47266 1.4492-0.097657 1.9766-0.26562 0.23828-0.59766 0.35156-0.93359 0.35156-0.375 0-0.76563-0.15625-1.0273-0.46094zm30.797-0.86328c-0.375-0.66797-0.13672-1.5195 0.53125-1.8945 0.66797-0.37891 1.5156-0.125 1.8945 0.54297s0.14062 1.5156-0.53125 1.8945c-0.22266 0.11328-0.46094 0.17969-0.68359 0.17969-0.48828 0-0.95703-0.26562-1.2109-0.72266zm4.8633-2.7188c-0.375-0.66797-0.13672-1.5156 0.53125-1.8945 0.66797-0.375 1.5156-0.13672 1.8945 0.53125 0.375 0.68359 0.13672 1.5156-0.53125 1.8945-0.22266 0.125-0.44531 0.17969-0.68359 0.17969-0.48828 0-0.96484-0.25-1.2109-0.71094zm-39.395-0.55859c-0.51562-0.57422-0.47266-1.4492 0.097656-1.9648 0.57422-0.51562 1.4492-0.47266 1.9648 0.097656 0.51562 0.57422 0.47266 1.4492-0.097657 1.9648-0.26562 0.25-0.59766 0.35938-0.93359 0.35938-0.375 0.003906-0.75-0.14844-1.0312-0.45703zm44.254-2.1523c-0.37891-0.66797-0.13672-1.5156 0.53125-1.8945 0.66797-0.375 1.5156-0.13672 1.8945 0.53125 0.375 0.66797 0.13672 1.5195-0.53125 1.8945-0.22266 0.125-0.44531 0.17969-0.68359 0.17969-0.48828 0-0.96094-0.26562-1.2109-0.71094zm-47.984-1.9805c-0.51562-0.57422-0.47266-1.4492 0.097656-1.9648 0.56641-0.51562 1.4648-0.47266 1.9766 0.097657 0.50391 0.57422 0.46094 1.4492-0.11328 1.9648-0.26563 0.25-0.60156 0.35938-0.93359 0.35938-0.375 0.003906-0.75-0.14844-1.0273-0.45703zm52.84-0.75391c-0.37891-0.66797-0.14062-1.5156 0.53125-1.8945 0.66797-0.375 1.5156-0.13672 1.8945 0.53125 0.37891 0.68359 0.14062 1.5352-0.53125 1.9102-0.22266 0.11328-0.44531 0.17969-0.68359 0.16406-0.48438 0-0.95703-0.24609-1.2109-0.71094zm4.8594-2.7109c-0.375-0.66797-0.13672-1.5156 0.53125-1.8945 0.68359-0.375 1.5156-0.13672 1.9102 0.53125 0.36328 0.68359 0.12891 1.5156-0.54297 1.8945-0.22266 0.125-0.44531 0.17969-0.68359 0.17969-0.48828-0.003906-0.96094-0.25391-1.2148-0.71094zm-61.43-0.66797c-0.51562-0.57422-0.47266-1.4492 0.09375-1.9648 0.57422-0.51562 1.4648-0.47266 1.9766 0.09375 0.51562 0.57422 0.46094 1.4492-0.11328 1.9648-0.26562 0.23828-0.59766 0.35938-0.93359 0.35938-0.37109 0.003906-0.74609-0.14844-1.0234-0.45312zm66.289-2.0469c-0.375-0.68359-0.13672-1.5312 0.53125-1.9102 0.66797-0.375 1.5156-0.125 1.8945 0.54297 0.375 0.66797 0.13672 1.5156-0.53125 1.8945-0.20703 0.12891-0.44531 0.17969-0.68359 0.17969-0.48438 0.003906-0.96094-0.26172-1.2109-0.70703zm-70.023-2.0898c-0.51562-0.57422-0.46094-1.4492 0.11328-1.9648 0.57422-0.51562 1.4492-0.47266 1.9648 0.097657 0.51562 0.57422 0.46094 1.4492-0.11328 1.9648-0.26562 0.23828-0.59766 0.35938-0.91797 0.35938-0.38672 0.003906-0.76562-0.14844-1.0469-0.45703zm74.883-0.64453c-0.37891-0.66797-0.13672-1.5156 0.53125-1.8945 0.68359-0.37891 1.5312-0.14062 1.8945 0.53125 0.38672 0.68359 0.13672 1.5312-0.53125 1.9102-0.20703 0.11328-0.44531 0.16406-0.68359 0.16406-0.48438 0-0.96094-0.24609-1.2109-0.71094zm4.8594-2.7109c-0.37891-0.66797-0.14062-1.5156 0.53125-1.8945 0.68359-0.37891 1.5312-0.14062 1.8945 0.53125 0.38672 0.66797 0.14062 1.5156-0.53125 1.8945-0.20703 0.12109-0.44531 0.17969-0.68359 0.17969-0.48828 0-0.96094-0.25391-1.2109-0.71094zm-83.461-0.77734c-0.51562-0.57422-0.47266-1.4492 0.097656-1.9648 0.57422-0.51562 1.4492-0.47266 1.9648 0.097656 0.51562 0.57422 0.47266 1.4492-0.097656 1.9648-0.26562 0.23828-0.59766 0.35938-0.93359 0.35938-0.39062 0-0.76562-0.15625-1.0312-0.45703zm88.32-1.9375c-0.375-0.68359-0.13672-1.5352 0.54297-1.9102 0.66797-0.35938 1.5156-0.125 1.8945 0.54297 0.37891 0.66797 0.12891 1.5156-0.54297 1.8945-0.20703 0.125-0.44531 0.17969-0.68359 0.17969-0.48828 0.003906-0.96094-0.26172-1.2109-0.70703zm-92.051-2.2031c-0.51563-0.57422-0.47266-1.4648 0.097656-1.9766 0.56641-0.50391 1.4453-0.46094 1.9609 0.11328 0.51562 0.56641 0.47266 1.4492-0.09375 1.9609-0.26562 0.23828-0.60156 0.36328-0.93359 0.36328-0.37891 0-0.76563-0.15234-1.0312-0.46094zm96.91-0.52344c-0.375-0.66797-0.13672-1.5195 0.53125-1.8945 0.68359-0.37891 1.5352-0.13672 1.9102 0.53125 0.35938 0.68359 0.125 1.5156-0.54297 1.9102-0.20703 0.11328-0.44531 0.16406-0.68359 0.16406-0.49219 0-0.96094-0.25391-1.2148-0.71094zm4.8633-2.7188c-0.375-0.66797-0.13672-1.5156 0.54297-1.8945 0.66797-0.375 1.5195-0.13672 1.8945 0.53125s0.13672 1.5156-0.54297 1.8945c-0.20703 0.125-0.44531 0.17969-0.66797 0.17969-0.50781 0-0.98047-0.25391-1.2266-0.71094zm-105.5-0.89062c-0.51562-0.56641-0.47266-1.4648 0.09375-1.9766 0.57422-0.51562 1.4492-0.46094 1.9648 0.11328 0.51563 0.57422 0.47266 1.4492-0.097656 1.9648-0.26562 0.23828-0.59766 0.35937-0.93359 0.35937-0.37109-0.003906-0.75-0.16797-1.0273-0.46094zm110.36-1.8242c-0.37891-0.68359-0.125-1.5312 0.54297-1.9102 0.66797-0.375 1.5156-0.125 1.8945 0.54297 0.375 0.66797 0.125 1.5195-0.54297 1.8945-0.20703 0.11328-0.44531 0.17969-0.66797 0.17969-0.49219 0.003906-0.96875-0.26172-1.2266-0.70703zm-114.1-2.3242c-0.51562-0.57422-0.47266-1.4492 0.097656-1.9648 0.57422-0.51562 1.4648-0.46094 1.9648 0.11328 0.53125 0.57422 0.47266 1.4492-0.097656 1.9648-0.26563 0.23828-0.59766 0.35156-0.93359 0.35156-0.375-0.007812-0.75-0.15625-1.0312-0.46484zm118.96-0.40234c-0.37891-0.66797-0.12891-1.5156 0.54297-1.8945 0.66797-0.375 1.5156-0.13672 1.8945 0.53125 0.375 0.68359 0.125 1.5195-0.54297 1.9102-0.20703 0.11328-0.44531 0.16406-0.68359 0.16406-0.47266 0-0.94531-0.25391-1.2109-0.71094zm4.8594-2.7188c-0.375-0.68359-0.125-1.5156 0.54297-1.9102 0.66797-0.35938 1.5156-0.125 1.8945 0.54297 0.37891 0.66797 0.125 1.5156-0.54297 1.8945-0.20703 0.125-0.44531 0.17969-0.66797 0.17969-0.48828 0.003906-0.96484-0.25781-1.2266-0.70703zm-127.55-1.0156c-0.51562-0.57422-0.46094-1.4492 0.097656-1.9648 0.56641-0.51562 1.4648-0.47266 1.9766 0.09375 0.51562 0.57422 0.46094 1.4648-0.11328 1.9805-0.26562 0.23828-0.60156 0.35156-0.93359 0.35156-0.36719 0-0.74609-0.15625-1.0273-0.46094zm132.4-1.7109c-0.375-0.66797-0.125-1.5156 0.54297-1.8945 0.66797-0.375 1.5195-0.13672 1.8945 0.53125 0.37891 0.68359 0.13672 1.5312-0.54297 1.9102-0.20703 0.11328-0.44531 0.16406-0.66797 0.16406-0.48438-0.003907-0.96094-0.25391-1.2266-0.71094zm-136.13-2.4258c-0.51562-0.56641-0.46094-1.4492 0.09375-1.9609 0.58203-0.51562 1.4648-0.47266 1.9766 0.09375 0.51562 0.57422 0.46094 1.4648-0.11328 1.9766-0.26562 0.23828-0.59766 0.35156-0.91797 0.35156-0.38672 0.003906-0.76562-0.15234-1.0391-0.46094zm140.99-0.28906c-0.37891-0.66797-0.14062-1.5156 0.54297-1.8945 0.66797-0.37891 1.5156-0.14062 1.8945 0.53125 0.375 0.66797 0.13672 1.5156-0.54297 1.8945-0.20703 0.12891-0.44531 0.17969-0.66797 0.17969-0.48828 0-0.96094-0.25391-1.2266-0.71094zm4.8594-2.7344c-0.36328-0.66797-0.12891-1.5078 0.54297-1.8945 0.66797-0.36328 1.5156-0.12891 1.8945 0.54297 0.375 0.66797 0.13672 1.5156-0.53125 1.8945-0.22266 0.125-0.46094 0.17969-0.68359 0.17969-0.48438 0.007812-0.95703-0.25781-1.2227-0.72266zm-149.59-1.1133c-0.51562-0.57422-0.46094-1.4492 0.11328-1.9648 0.57422-0.51563 1.4492-0.47266 1.9648 0.097656 0.51562 0.57422 0.47266 1.4648-0.097656 1.9648-0.28125 0.25-0.59766 0.35937-0.93359 0.35937-0.38672 0.003907-0.76562-0.14844-1.0469-0.45703zm154.46-1.5977c-0.38672-0.66797-0.14062-1.5156 0.53125-1.8945 0.66797-0.37891 1.5156-0.14062 1.8945 0.53125 0.37891 0.68359 0.14062 1.5312-0.54297 1.9102-0.20703 0.11328-0.44531 0.16406-0.66797 0.16406-0.49219-0.003906-0.96484-0.25391-1.2148-0.71094zm4.8594-2.7148c-0.375-0.66797-0.13672-1.5352 0.53125-1.8945 0.66797-0.375 1.5195-0.13672 1.8945 0.53125 0.37891 0.66797 0.13672 1.5156-0.53125 1.8945-0.22266 0.125-0.46094 0.17969-0.68359 0.17969-0.48828 0-0.96094-0.25-1.2109-0.71094zm-163.04 0.17969c-0.51563-0.57422-0.47266-1.4492 0.097656-1.9648 0.57422-0.51562 1.4492-0.47266 1.9648 0.097656 0.51562 0.56641 0.47266 1.4648-0.097657 1.9609-0.26562 0.25-0.59766 0.36328-0.93359 0.36328-0.375 0.003906-0.76563-0.14844-1.0312-0.45703zm167.89-2.9062c-0.375-0.66797-0.13672-1.5195 0.53125-1.8945s1.5156-0.13672 1.8945 0.54297c0.375 0.66797 0.13672 1.5195-0.53125 1.8945-0.22266 0.125-0.46094 0.17969-0.68359 0.17969-0.48828-0.003906-0.96094-0.26562-1.2109-0.72266zm-171.62-1.2266c-0.51562-0.57422-0.47266-1.4492 0.097656-1.9648 0.56641-0.51562 1.4453-0.47266 1.9609 0.09375 0.51562 0.57422 0.47266 1.4492-0.09375 1.9648-0.26562 0.25-0.60156 0.35938-0.93359 0.35938-0.37891 0.003907-0.77344-0.14844-1.0312-0.45312zm176.48-1.4922c-0.37891-0.66797-0.14062-1.5156 0.53125-1.8945 0.66797-0.375 1.5156-0.13672 1.8945 0.53125 0.375 0.68359 0.13672 1.5352-0.53125 1.9102-0.22266 0.11328-0.46094 0.16406-0.68359 0.16406-0.49219 0-0.96484-0.25391-1.2109-0.71094zm4.8438-2.7148c-0.35938-0.66797-0.125-1.5156 0.54297-1.8945 0.66797-0.375 1.5156-0.13672 1.8945 0.53125 0.37891 0.66797 0.14062 1.5156-0.53125 1.8945-0.22266 0.125-0.46094 0.17969-0.68359 0.17969-0.48438 0-0.95703-0.26562-1.2227-0.71094zm-185.06 0.070313c-0.51562-0.57422-0.47266-1.4492 0.09375-1.9648 0.57422-0.51562 1.4492-0.47266 1.9766 0.097656 0.50391 0.57422 0.46094 1.4492-0.11328 1.9648-0.26562 0.25-0.59766 0.35938-0.93359 0.35938-0.37109 0.003906-0.74609-0.14844-1.0234-0.45703zm-3.7305-4.1367c-0.51562-0.57422-0.47266-1.4492 0.097657-1.9648 0.57422-0.51562 1.4648-0.47266 1.9766 0.097656 0.51562 0.57422 0.46094 1.4492-0.11328 1.9648-0.26562 0.23828-0.59766 0.35938-0.93359 0.35938-0.375 0.003906-0.75391-0.15234-1.0273-0.45703zm190.13-0.77734c-0.76563-0.015625-1.3789-0.65234-1.3633-1.4219 0.015625-0.76562 0.65234-1.3789 1.4219-1.3633 0.76562 0.015625 1.3789 0.65234 1.3633 1.4219-0.015624 0.76562-0.64062 1.3633-1.3906 1.3633h-0.03125zm-193.86-3.3594c-0.51562-0.57422-0.47266-1.4492 0.097657-1.9766 0.58203-0.50391 1.4648-0.46094 1.9766 0.11328 0.51562 0.56641 0.46094 1.4453-0.11328 1.9609-0.26562 0.23828-0.60156 0.36328-0.93359 0.36328-0.375 0-0.75-0.15234-1.0273-0.46094zm193.97-2.2109c-0.76562-0.015624-1.3789-0.64453-1.3633-1.4219 0.015625-0.76563 0.65234-1.3789 1.4219-1.3516 0.76562 0 1.3789 0.64062 1.3633 1.4062-0.015626 0.76562-0.64063 1.3633-1.3906 1.3633-0.015624 0.003906-0.03125 0.003906-0.03125 0.003906zm-197.7-1.9219c-0.51563-0.56641-0.46094-1.4648 0.10937-1.9766 0.57422-0.51562 1.4492-0.46094 1.9648 0.11328 0.51562 0.57422 0.47266 1.4492-0.09375 1.9648-0.26562 0.23828-0.60156 0.35938-0.93359 0.35938-0.39453-0.003906-0.77344-0.15234-1.0469-0.46094zm197.82-3.6484c-0.76562-0.015625-1.3789-0.64453-1.3633-1.4219 0.015626-0.76562 0.64063-1.3789 1.4219-1.3633 0.76562 0.015625 1.3789 0.65234 1.3633 1.4219-0.015625 0.76562-0.64062 1.3633-1.4062 1.3633zm-201.55-0.48828c-0.50391-0.57422-0.46094-1.4648 0.11328-1.9648 0.57422-0.53125 1.4492-0.47266 1.9648 0.097656 0.51562 0.57422 0.47266 1.4492-0.097656 1.9648-0.26563 0.23828-0.59766 0.35938-0.93359 0.35938-0.37891 0.003906-0.76953-0.15234-1.0469-0.45703zm-3.7188-4.1484c-0.51562-0.57422-0.47266-1.4492 0.097656-1.9648 0.57422-0.51563 1.4492-0.46094 1.9648 0.11328s0.47266 1.4492-0.097657 1.9648c-0.26562 0.23828-0.59766 0.35156-0.93359 0.35156-0.37891-0.003906-0.76562-0.16016-1.0312-0.46484zm205.38-0.92969c-0.76562-0.015625-1.3789-0.64453-1.3633-1.4219 0.015624-0.76562 0.64062-1.3789 1.4219-1.3633 0.76563 0.027343 1.3789 0.65234 1.3516 1.4336 0 0.75391-0.625 1.3516-1.3789 1.3516h-0.03125zm-209.11-3.2031c-0.51562-0.55859-0.47266-1.4492 0.097656-1.9648 0.56641-0.51562 1.4453-0.46094 1.9609 0.11328 0.53125 0.55859 0.47266 1.4492-0.09375 1.9648-0.26562 0.23828-0.60156 0.35938-0.93359 0.35938-0.37891-0.003906-0.75391-0.16797-1.0312-0.47266zm209.22-2.3555c-0.78125-0.015625-1.3789-0.65234-1.3789-1.4219 0.027344-0.78125 0.65234-1.3906 1.4219-1.3633 0.78125 0.015625 1.3906 0.64062 1.3633 1.4219 0 0.75391-0.625 1.3633-1.3789 1.3633h-0.027344zm0.097656-5.5664c-0.76562-0.015625-1.3633-0.65234-1.3633-1.4219 0.027344-0.78125 0.65234-1.3789 1.4219-1.3633 0.78125 0.015624 1.3906 0.65234 1.3633 1.4219-0.015625 0.75391-0.625 1.3633-1.3906 1.3633h-0.03125zm0.10938-5.5703c-0.76562-0.015625-1.3789-0.65234-1.3633-1.4219 0.027344-0.76562 0.65234-1.3789 1.4219-1.3633 0.78125 0.015625 1.3789 0.65234 1.3633 1.4219-0.015625 0.75391-0.625 1.3633-1.3789 1.3633h-0.042969zm0.11328-5.5703c-0.76562-0.015625-1.3789-0.65234-1.3633-1.4219 0.015625-0.76562 0.65234-1.3789 1.4219-1.3633 0.76562 0.015626 1.3789 0.64063 1.3633 1.4219-0.015626 0.75391-0.64063 1.3633-1.3906 1.3633h-0.03125zm0.10938-5.5742c-0.76563-0.015625-1.3789-0.65234-1.3633-1.4219 0.015625-0.76562 0.65234-1.3789 1.4219-1.3633 0.76562 0.015625 1.3789 0.65234 1.3633 1.4219-0.015624 0.75391-0.625 1.3633-1.3906 1.3633h-0.03125zm0.11328-5.5703c-0.76562-0.015626-1.3789-0.65234-1.3633-1.4219 0.015624-0.76562 0.65234-1.3789 1.4219-1.3633 0.76563 0.015625 1.3789 0.65234 1.3633 1.4219-0.015625 0.76562-0.64062 1.3633-1.3906 1.3633h-0.03125zm0.10938-5.5664c-0.76562-0.015625-1.3789-0.65234-1.3633-1.4219 0.015626-0.76562 0.65234-1.3789 1.4219-1.3633 0.76562 0.015625 1.3789 0.65234 1.3633 1.4219-0.015625 0.76562-0.64062 1.3633-1.3906 1.3633h-0.03125zm0.11328-5.5703c-0.76562-0.015625-1.3789-0.65234-1.3633-1.4219 0.015625-0.76562 0.65234-1.3789 1.4219-1.3633 0.76562 0.015626 1.3789 0.65234 1.3633 1.4219-0.015625 0.76562-0.64062 1.3633-1.3906 1.3633h-0.03125zm0.10938-5.5703c-0.76562-0.015625-1.3789-0.65234-1.3633-1.4219 0.015625-0.76562 0.65234-1.3789 1.4219-1.3633 0.76562 0.015625 1.3789 0.65234 1.3633 1.4219-0.015625 0.76562-0.64062 1.3633-1.3906 1.3633h-0.03125zm0.11328-5.5664c-0.76562-0.015625-1.3789-0.64062-1.3633-1.4219 0.015625-0.76562 0.64062-1.3789 1.4219-1.3633 0.76562 0.015625 1.3789 0.65234 1.3633 1.4219-0.015625 0.76562-0.64062 1.3633-1.4062 1.3633zm0.09375-5.5703c-0.76562-0.015626-1.3789-0.64063-1.3516-1.4219 0.015625-0.76562 0.64062-1.3789 1.4062-1.3633 0.78125 0.027344 1.3789 0.65234 1.3633 1.4219-0.015625 0.76562-0.625 1.3633-1.3789 1.3633h-0.039063zm0.11328-5.5703c-0.76562-0.015625-1.3789-0.64062-1.3516-1.4062 0-0.78125 0.64062-1.3906 1.4062-1.3633 0.78125 0.015625 1.3789 0.64062 1.3633 1.4062s-0.625 1.3633-1.3906 1.3633h-0.027344zm0.11719-5.5703c-0.76562 0-1.3789-0.64062-1.3633-1.4062 0.015625-0.78125 0.65234-1.3789 1.4219-1.3633 0.76562 0.015625 1.3789 0.64062 1.3633 1.4219-0.015625 0.75391-0.625 1.3516-1.3906 1.3516-0.007812-0.003907-0.023438-0.003907-0.03125-0.003907zm0.10547-5.5547c-0.76562-0.027344-1.3789-0.65234-1.3633-1.4219 0.015624-0.78125 0.65234-1.3789 1.4219-1.3633 0.76563 0.015625 1.3789 0.64062 1.3633 1.4219-0.015625 0.75391-0.625 1.3633-1.3906 1.3633h-0.03125zm0.10938-5.5703c-0.76562-0.015624-1.3789-0.65234-1.3633-1.4219 0.015626-0.76563 0.65234-1.3789 1.4219-1.3633 0.76562 0.015625 1.3789 0.64062 1.3633 1.4219-0.015625 0.75391-0.625 1.3633-1.3906 1.3633h-0.03125zm0.11328-5.5664c-0.76562-0.015625-1.3789-0.65234-1.3633-1.4219 0.015625-0.76562 0.65234-1.3789 1.4219-1.3633 0.76562 0.015625 1.3789 0.65234 1.3633 1.4219-0.015625 0.75391-0.625 1.3633-1.3906 1.3633h-0.03125zm0.10938-5.5703c-0.76562-0.015625-1.3789-0.65234-1.3633-1.4219 0.015625-0.76562 0.65234-1.3789 1.4219-1.3633 0.76562 0.015624 1.3789 0.65234 1.3633 1.4219-0.015625 0.75391-0.64062 1.3633-1.3906 1.3633h-0.03125zm0.11328-5.5703c-0.76562-0.015625-1.3789-0.65234-1.3633-1.4219 0.015625-0.76562 0.64062-1.3789 1.4219-1.3633 0.76562 0.015625 1.3789 0.65234 1.3633 1.4219-0.015625 0.76562-0.64062 1.3633-1.3906 1.3633h-0.03125zm0.10938-5.5703c-0.76562-0.015625-1.3789-0.65234-1.3633-1.4219 0.015625-0.76562 0.64062-1.3789 1.4219-1.3633 0.76562 0.015626 1.3789 0.65234 1.3633 1.4219-0.015625 0.76562-0.64062 1.3633-1.3906 1.3633h-0.03125zm0.11328-5.5664c-0.78125-0.015624-1.3789-0.65234-1.3633-1.4219 0.015625-0.76563 0.64062-1.3789 1.4219-1.3633 0.76562 0.015625 1.3789 0.65234 1.3516 1.4219 0 0.76562-0.625 1.3633-1.3789 1.3633h-0.03125zm0.11328-5.5703c-0.78125-0.015625-1.3789-0.65234-1.3789-1.4219 0.027344-0.76562 0.65234-1.3789 1.4336-1.3633 0.76562 0.015625 1.3789 0.65234 1.3516 1.4219-0.015625 0.76562-0.625 1.3633-1.3789 1.3633h-0.027343zm0.011719-5.6406c-0.17969-0.75391 0.29297-1.5078 1.0469-1.6719 0.75391-0.16406 1.4922 0.29297 1.6719 1.0469 0.16406 0.75391-0.30859 1.5078-1.0547 1.6719-0.097656 0.027344-0.20703 0.027344-0.30859 0.027344-0.64453-0.003906-1.2148-0.43359-1.3555-1.0742zm5.4297-1.2422c-0.17969-0.75391 0.29297-1.4922 1.0469-1.6562 0.75391-0.17969 1.4922 0.29297 1.6719 1.0469 0.16406 0.75391-0.30859 1.5078-1.0625 1.6719-0.09375 0.015624-0.20703 0.027343-0.30859 0.027343-0.63672-0.003906-1.207-0.43359-1.3477-1.0898zm5.4336-1.2266c-0.17969-0.75391 0.29297-1.4922 1.0469-1.6719 0.75391-0.16406 1.5078 0.30859 1.6719 1.0625 0.16406 0.75391-0.30859 1.4922-1.0547 1.6562-0.097656 0.027344-0.20703 0.042969-0.30859 0.042969-0.62891 0-1.2188-0.44531-1.3555-1.0898zm5.4258-1.2188c-0.16406-0.75391 0.29297-1.5 1.0469-1.6719 0.75391-0.16406 1.5078 0.30859 1.6719 1.0547 0.16406 0.73828-0.30859 1.4922-1.0547 1.6562-0.097656 0.027343-0.19531 0.042968-0.30859 0.042968-0.62891 0-1.2109-0.44531-1.3555-1.082zm5.4336-1.2422c-0.16406-0.75391 0.30859-1.4922 1.0547-1.6562 0.73828-0.16406 1.4922 0.29297 1.6562 1.0469 0.16406 0.75391-0.30859 1.5-1.0469 1.6719-0.10938 0.027343-0.20703 0.027343-0.31641 0.027343-0.62109-0.003906-1.1953-0.4375-1.3477-1.0898zm5.4336-1.2266c-0.16406-0.75391 0.30859-1.4922 1.0547-1.6562 0.75391-0.17969 1.4922 0.29297 1.6562 1.0469s-0.29297 1.4922-1.0469 1.6719c-0.11328 0.015625-0.20703 0.027344-0.30859 0.027344-0.63281 0-1.207-0.4375-1.3555-1.0898zm5.4258-1.2227c-0.16406-0.75391 0.30859-1.4922 1.0547-1.6719 0.73828-0.16406 1.4922 0.30859 1.6562 1.0547 0.17969 0.75391-0.29297 1.4922-1.0469 1.6719-0.11328 0.015625-0.20703 0.027344-0.30859 0.027344-0.63281 0.003906-1.1992-0.42969-1.3555-1.082zm5.4336-1.2266c-0.16406-0.75391 0.30859-1.5078 1.0625-1.6719 0.75391-0.16406 1.4883 0.30859 1.6562 1.0469 0.17969 0.75391-0.29297 1.5078-1.0469 1.6719-0.11328 0.027344-0.20703 0.042969-0.30859 0.042969-0.64062-0.003906-1.2148-0.44922-1.3633-1.0898zm5.4453-1.2383c-0.17969-0.75391 0.29297-1.4922 1.0469-1.6562s1.4922 0.29297 1.6719 1.0469c0.16406 0.75391-0.30859 1.5078-1.0547 1.6719-0.097657 0.027344-0.20703 0.027344-0.30859 0.027344-0.64453-0.003907-1.2188-0.4375-1.3555-1.0898zm5.4258-1.2266c-0.17969-0.75391 0.29297-1.4922 1.0469-1.6562 0.75391-0.17969 1.5078 0.29297 1.6719 1.0469 0.16406 0.75391-0.30859 1.4922-1.0625 1.6719-0.09375 0.015626-0.20703 0.027344-0.30859 0.027344-0.63672-0.003906-1.2031-0.43359-1.3477-1.0898zm5.4336-1.2227c-0.16406-0.75391 0.29297-1.4922 1.0469-1.6719 0.75391-0.16406 1.5078 0.30859 1.6719 1.0625 0.16406 0.75391-0.30859 1.4922-1.0547 1.6562-0.097656 0.027344-0.20703 0.042969-0.30859 0.042969-0.63281-0.007812-1.2188-0.45312-1.3555-1.0898zm5.4297-1.2266c-0.16406-0.75391 0.30859-1.5078 1.0469-1.6719 0.75391-0.16406 1.5078 0.30859 1.6719 1.0547 0.16406 0.73828-0.30859 1.4922-1.0469 1.6562-0.11328 0.027344-0.20703 0.027344-0.32031 0.027344-0.625 0.003906-1.2148-0.42969-1.3516-1.0664zm5.4297-1.2422c-0.16406-0.73828 0.30859-1.4922 1.0547-1.6562 0.73828-0.17969 1.4922 0.29297 1.6562 1.0469 0.16406 0.75391-0.29297 1.5078-1.0469 1.6719-0.10938 0.015625-0.20703 0.027344-0.30859 0.027344-0.63281 0-1.207-0.4375-1.3555-1.0898zm5.4297-1.2227c-0.16406-0.75391 0.30859-1.4922 1.0625-1.6719 0.73828-0.16406 1.4883 0.30859 1.6562 1.0547 0.16406 0.75391-0.29297 1.4922-1.0469 1.6719-0.11328 0.015624-0.20703 0.027343-0.30859 0.027343-0.63672 0.003907-1.2109-0.42578-1.3633-1.082zm5.4336-1.2266c-0.16406-0.75391 0.30859-1.5 1.0547-1.6719 0.75391-0.16406 1.4922 0.30859 1.6562 1.0547 0.17969 0.75391-0.29297 1.4922-1.0469 1.6562-0.11328 0.027344-0.20703 0.042969-0.30859 0.042969-0.63672 0.003906-1.2031-0.44141-1.3555-1.082zm5.4414-1.2266c-0.17969-0.75391 0.29297-1.5078 1.0469-1.6719 0.75391-0.16406 1.4883 0.30859 1.6719 1.0547 0.16406 0.73828-0.30859 1.4922-1.0625 1.6562-0.09375 0.027343-0.20703 0.027343-0.30859 0.027343-0.63672 0.003907-1.2109-0.42578-1.3477-1.0664zm5.4297-1.2383c-0.16406-0.73828 0.29297-1.4922 1.0469-1.6562 0.75391-0.16406 1.4922 0.29297 1.6719 1.0469 0.16406 0.75391-0.30859 1.4922-1.0547 1.6719-0.097656 0.015625-0.20703 0.027344-0.30859 0.027344-0.64453 0-1.2148-0.43359-1.3555-1.0898zm5.4297-1.2227c-0.16406-0.75391 0.29297-1.4922 1.0469-1.6719 0.75391-0.16406 1.5078 0.30859 1.6719 1.0547 0.16406 0.75391-0.30859 1.4922-1.0625 1.6719-0.09375 0.015625-0.20703 0.027344-0.30859 0.027344-0.63672 0-1.207-0.42969-1.3477-1.082zm5.4297-1.2266c-0.16406-0.75391 0.30859-1.5078 1.0469-1.6719 0.75-0.16406 1.5 0.30859 1.6719 1.0625 0.16406 0.75391-0.29297 1.4922-1.0469 1.6562-0.11328 0.027344-0.20703 0.042969-0.31641 0.042969-0.62891-0.007813-1.2031-0.44922-1.3555-1.0898zm5.4336-1.2266c-0.16406-0.75391 0.30859-1.5078 1.0547-1.6719 0.73828-0.16406 1.4922 0.30859 1.6562 1.0625 0.16406 0.73828-0.30859 1.4922-1.0469 1.6562-0.11328 0.027343-0.20703 0.042968-0.32031 0.042968-0.61719 0-1.1914-0.44531-1.3438-1.0898zm5.4258-1.2383c-0.16406-0.75391 0.30859-1.4922 1.0547-1.6562 0.75391-0.16406 1.4922 0.29297 1.6562 1.0469 0.16406 0.75391-0.29297 1.5078-1.0469 1.6719-0.11328 0.015625-0.20703 0.027344-0.30859 0.027344-0.62891-0.003906-1.1992-0.43359-1.3555-1.0898zm5.4336-1.2266c-0.16406-0.75391 0.30859-1.4922 1.0625-1.6719 0.75391-0.16406 1.4883 0.30859 1.6719 1.0625 0.15234 0.75391-0.30859 1.4922-1.0547 1.6562-0.097656 0.027344-0.20703 0.042968-0.30859 0.042968-0.64844-0.003906-1.2188-0.44922-1.3711-1.0898zm5.4453-1.2266c-0.18359-0.75 0.28906-1.5 1.043-1.6719 0.75391-0.16406 1.4922 0.30859 1.6719 1.0547 0.16406 0.75391-0.30859 1.4922-1.0547 1.6562-0.097656 0.027343-0.20703 0.042969-0.30859 0.042969-0.64453 0.003906-1.2148-0.44141-1.3516-1.082z"/>
  <path d="m377.23 232.87c-0.75391-0.16406-1.2266-0.91797-1.0547-1.6719 0.16406-0.73828 0.91797-1.2109 1.6719-1.0469 0.73828 0.16406 1.2109 0.90625 1.0469 1.6562-0.13672 0.65234-0.71094 1.0859-1.3516 1.0859-0.10547 0.003907-0.21875 0.003907-0.3125-0.023437zm-5.4492-1.2266c-0.73828-0.16406-1.2109-0.90625-1.0469-1.6562 0.16406-0.75391 0.90625-1.2266 1.6562-1.0547 0.75391 0.16406 1.2266 0.91797 1.0547 1.6719-0.15234 0.64062-0.72266 1.0859-1.3633 1.0859-0.089844-0.003906-0.1875-0.019531-0.30078-0.046875zm-5.4297-1.2109c-0.75391-0.16406-1.2266-0.90625-1.0469-1.6562 0.15234-0.75391 0.90625-1.2266 1.6562-1.0625 0.75391 0.16406 1.2266 0.90625 1.0547 1.6562-0.15234 0.65234-0.72266 1.0859-1.3633 1.0859-0.09375 0.003907-0.1875 0.003907-0.30078-0.023437zm-5.4297-1.2109c-0.75391-0.16406-1.2266-0.91797-1.0547-1.6719 0.16406-0.75391 0.91797-1.2266 1.6719-1.0469 0.73828 0.15234 1.2109 0.90625 1.0469 1.6562-0.13672 0.65234-0.72266 1.0859-1.3516 1.0859-0.11719 0.007812-0.21484-0.007813-0.3125-0.023438zm-5.4453-1.2266c-0.73828-0.16406-1.2109-0.90625-1.0469-1.6562 0.16406-0.75391 0.90625-1.2266 1.6562-1.0625 0.75 0.16406 1.2266 0.90625 1.0547 1.6562-0.15234 0.65234-0.72266 1.0977-1.3633 1.0977-0.089844 0.007812-0.1875-0.003906-0.30078-0.035156zm-5.4297-1.2109c-0.75391-0.16406-1.2266-0.91797-1.0547-1.6719 0.16406-0.75391 0.91797-1.2109 1.6719-1.0469 0.75391 0.16406 1.2266 0.90625 1.0469 1.6562-0.13672 0.64062-0.71094 1.0859-1.3516 1.0859-0.10156 0.003906-0.19922-0.007813-0.3125-0.023438zm-5.4297-1.2266c-0.75391-0.16406-1.2266-0.90625-1.0547-1.6562 0.16406-0.75391 0.91797-1.2266 1.6719-1.0625 0.73828 0.16406 1.2109 0.91797 1.0469 1.6719-0.13672 0.64062-0.71094 1.0859-1.3516 1.0859-0.10156 0.003906-0.21875-0.011718-0.3125-0.039062zm-5.4453-1.207c-0.73828-0.16406-1.2109-0.91797-1.0469-1.6562 0.16406-0.75391 0.90625-1.2266 1.6562-1.0625 0.75391 0.16406 1.2266 0.90625 1.0625 1.6562-0.15234 0.65234-0.72266 1.0859-1.3633 1.0859-0.10156 0-0.19531 0-0.30859-0.023438zm-5.4258-1.2109c-0.75391-0.17969-1.2266-0.91797-1.0547-1.6719 0.16406-0.75391 0.91797-1.2266 1.6719-1.0625 0.75391 0.16406 1.2266 0.91797 1.0547 1.6719-0.15234 0.64062-0.72266 1.0859-1.3633 1.0859-0.10156 0.003907-0.21484-0.011718-0.30859-0.023437zm-5.4336-1.2266c-0.75391-0.16406-1.2266-0.90625-1.0625-1.6562 0.16406-0.75391 0.91797-1.2266 1.6719-1.0625 0.75391 0.16406 1.2109 0.90625 1.0469 1.6562-0.13672 0.65234-0.71094 1.0977-1.3516 1.0977-0.097656 0.003906-0.21094-0.007813-0.30469-0.035157zm-5.4453-1.2148c-0.73828-0.16406-1.2109-0.91797-1.0469-1.6719 0.16406-0.75391 0.90625-1.2266 1.6562-1.0469 0.75391 0.16406 1.2266 0.90625 1.0625 1.6562-0.14062 0.65234-0.72266 1.0859-1.3516 1.0859-0.11328 0.003906-0.20703-0.007812-0.32031-0.023437zm-5.4297-1.2227c-0.75391-0.16406-1.2266-0.90625-1.0547-1.6562 0.16406-0.75391 0.91797-1.2266 1.6719-1.0625 0.75391 0.16406 1.2266 0.91797 1.0547 1.6719-0.15234 0.64062-0.72266 1.0859-1.3633 1.0859-0.097656 0-0.19922-0.015625-0.30859-0.039063zm-5.4297-1.2109c-0.75391-0.16406-1.2266-0.91797-1.0625-1.6562 0.16406-0.75391 0.90625-1.2266 1.6562-1.0547 0.75391 0.16406 1.2266 0.90625 1.0547 1.6562-0.13672 0.65234-0.71094 1.0859-1.3516 1.0859-0.089844-0.003906-0.19922-0.015625-0.29688-0.03125zm-5.4336-1.2266c-0.75391-0.16406-1.2266-0.90625-1.0547-1.6562 0.16406-0.75391 0.90625-1.2266 1.6562-1.0625 0.75391 0.16406 1.2266 0.91797 1.0625 1.6719-0.14063 0.64062-0.72266 1.0859-1.3516 1.0859-0.11719 0.003906-0.21094-0.011719-0.3125-0.039063zm-5.4414-1.2109c-0.75391-0.16406-1.2109-0.91797-1.0547-1.6562 0.16406-0.75391 0.91797-1.2266 1.6719-1.0547 0.75391 0.16406 1.2266 0.90625 1.0547 1.6562-0.15234 0.65234-0.72266 1.0859-1.3633 1.0859-0.097656-0.003906-0.21094-0.003906-0.30859-0.03125zm-5.4297-1.2148c-0.75391-0.17969-1.2266-0.91797-1.0625-1.6719 0.16406-0.75391 0.91797-1.2266 1.6562-1.0625 0.75391 0.16406 1.2266 0.91797 1.0547 1.6719-0.13672 0.64062-0.71094 1.0859-1.3516 1.0859-0.089844 0.007812-0.19922-0.007813-0.29688-0.023438zm-5.4297-1.2188c-0.75391-0.16406-1.2266-0.90625-1.0547-1.6562 0.16406-0.75391 0.90625-1.2266 1.6562-1.0547 0.75391 0.16406 1.2266 0.91797 1.0625 1.6562-0.14062 0.65234-0.72266 1.0977-1.3516 1.0977-0.11719-0.003906-0.21484-0.015625-0.3125-0.042969zm-5.4453-1.2148c-0.75391-0.16406-1.2266-0.91797-1.0547-1.6719 0.16406-0.75391 0.91797-1.2266 1.6719-1.0469 0.75391 0.16406 1.2266 0.90625 1.0547 1.6562-0.15234 0.65234-0.72266 1.0859-1.3633 1.0859-0.10156 0.003906-0.19922-0.007813-0.30859-0.023437zm-5.4336-1.2266c-0.75391-0.16406-1.2266-0.90625-1.0625-1.6562 0.16406-0.75391 0.91797-1.2266 1.6562-1.0547 0.75391 0.16406 1.2266 0.91797 1.0547 1.6719-0.13672 0.64063-0.72266 1.0859-1.3516 1.0859-0.10156-0.003906-0.19531-0.019531-0.29687-0.046875zm-5.4258-1.2109c-0.75391-0.16406-1.2266-0.91797-1.0547-1.6562 0.16406-0.75391 0.90625-1.2266 1.6562-1.0547 0.75391 0.16406 1.2266 0.90625 1.0625 1.6562-0.14062 0.65234-0.72266 1.0859-1.3633 1.0859-0.10547-0.003907-0.20703-0.003907-0.30078-0.03125zm-5.4453-1.207c-0.75391-0.16406-1.2266-0.91797-1.0547-1.6719 0.17969-0.75391 0.91797-1.2266 1.6719-1.0547 0.75391 0.17969 1.2266 0.91797 1.0547 1.6719-0.15234 0.65234-0.72266 1.0859-1.3633 1.0859-0.10156-0.003906-0.21094-0.019531-0.30859-0.03125zm-5.4258-1.2266c-0.75391-0.16406-1.2266-0.90625-1.0625-1.6562 0.16406-0.75391 0.91797-1.2266 1.6562-1.0547 0.75391 0.16406 1.2266 0.91797 1.0547 1.6562-0.13672 0.65234-0.72266 1.0977-1.3633 1.0977-0.09375 0-0.19141-0.015624-0.28516-0.042968zm-5.4336-1.2148c-0.75391-0.16406-1.2266-0.91797-1.0547-1.6719 0.16406-0.75391 0.90625-1.2109 1.6562-1.0547 0.75391 0.17969 1.2266 0.91797 1.0625 1.6719-0.14062 0.64063-0.72266 1.0859-1.3516 1.0859-0.11719 0-0.21875-0.015625-0.3125-0.03125z"/>
  <path d="m464.9 183.2 1.4492-2.3789 35.867 21.828-1.4492 2.3789z"/>
  <path d="m291.45 571.51c-0.23828-0.73828 0.17969-1.5156 0.91797-1.7422 0.73828-0.22266 1.5156 0.19531 1.7422 0.91797 0.22266 0.73828-0.19531 1.5156-0.93359 1.7422-0.125 0.042968-0.26562 0.070312-0.40234 0.070312-0.60156 0-1.1406-0.39062-1.3242-0.98828zm-1.6406-5.3359c-0.22266-0.72266 0.19531-1.5 0.93359-1.7422 0.73828-0.22266 1.5078 0.19531 1.7422 0.93359 0.22266 0.73828-0.19531 1.5156-0.93359 1.7422-0.14062 0.042969-0.26562 0.050781-0.40234 0.050781-0.60156 0.007813-1.1445-0.36719-1.3398-0.98438zm-1.6289-5.3164c-0.22266-0.73828 0.19531-1.5156 0.93359-1.7422 0.73828-0.22266 1.5078 0.19531 1.7422 0.91797 0.22266 0.73828-0.19531 1.5156-0.93359 1.7422-0.14062 0.042968-0.26562 0.070312-0.40234 0.070312-0.60156 0-1.1445-0.38672-1.3398-0.98828zm-1.6289-5.332c-0.22266-0.72266 0.19531-1.5078 0.93359-1.7305s1.5078 0.17969 1.7422 0.91797c0.22266 0.73828-0.19531 1.5156-0.93359 1.7422-0.14062 0.042969-0.26562 0.058594-0.40234 0.058594-0.60547 0-1.1445-0.375-1.3398-0.98828zm-1.6289-5.3203c-0.22266-0.73828 0.19531-1.5156 0.93359-1.7422 0.72266-0.22266 1.5078 0.17969 1.7227 0.91797 0.23828 0.73828-0.17969 1.5156-0.91797 1.7422-0.14062 0.042969-0.26562 0.070312-0.40234 0.070312-0.60156 0.003907-1.1562-0.39062-1.3359-0.98828zm-1.6289-5.332c-0.22266-0.72266 0.19531-1.5078 0.91797-1.7305 0.73828-0.23828 1.5195 0.17969 1.7422 0.91797 0.23828 0.73828-0.17969 1.5078-0.91797 1.7422-0.14062 0.042968-0.26562 0.058593-0.40234 0.058593-0.60547 0.003907-1.1602-0.37109-1.3398-0.98828zm-1.6328-5.3164c-0.22266-0.73828 0.19531-1.5195 0.91797-1.7422 0.73828-0.22266 1.5156 0.19531 1.7422 0.93359 0.22266 0.72266-0.17969 1.5078-0.91797 1.7422-0.13672 0.042968-0.28125 0.058593-0.40234 0.058593-0.60156-0.003906-1.1562-0.39844-1.3398-0.99219zm-1.6289-5.3203c-0.22266-0.73828 0.17969-1.5156 0.91797-1.7422 0.73828-0.23828 1.5156 0.17969 1.7422 0.91797 0.22266 0.73828-0.17969 1.5156-0.91797 1.7422-0.13672 0.042969-0.28125 0.058594-0.40234 0.058594-0.60156 0-1.1562-0.37891-1.3398-0.97656zm-1.625-5.332c-0.22266-0.73828 0.17969-1.5156 0.91797-1.7422 0.73828-0.22266 1.5156 0.19531 1.7422 0.93359 0.22266 0.72266-0.19531 1.5078-0.91797 1.7422-0.13672 0.027344-0.28125 0.058594-0.40234 0.058594-0.60547-0.003907-1.1602-0.39453-1.3398-0.99219zm-1.6289-5.3164c-0.22266-0.73828 0.17969-1.5156 0.91797-1.7422 0.73828-0.22266 1.5156 0.17969 1.7422 0.91797 0.22266 0.73828-0.19531 1.5156-0.91797 1.7422-0.13672 0.042969-0.28125 0.058594-0.41797 0.058594-0.58984-0.007812-1.1445-0.38281-1.3242-0.97656zm-1.6289-5.3359c-0.22266-0.73828 0.17969-1.5156 0.91797-1.7422 0.73828-0.22266 1.5156 0.19531 1.7422 0.91797 0.22266 0.73828-0.19531 1.5156-0.91797 1.7422-0.13672 0.042969-0.28125 0.070313-0.41797 0.070313-0.59375 0-1.1445-0.39063-1.3242-0.98828zm-1.6289-5.3164c-0.23828-0.73828 0.17969-1.5156 0.91797-1.7422 0.73828-0.22266 1.5156 0.17969 1.7422 0.91797 0.22266 0.73828-0.19531 1.5156-0.91797 1.7422-0.13672 0.042969-0.28125 0.050781-0.41797 0.050781-0.60156 0-1.1445-0.37109-1.3242-0.96875zm-1.6328-5.332c-0.23828-0.73828 0.17969-1.5078 0.91797-1.7422 0.73828-0.22266 1.5156 0.19531 1.7422 0.93359 0.22266 0.73828-0.19531 1.5078-0.91797 1.7305-0.13672 0.042968-0.28125 0.070312-0.41797 0.070312-0.60156-0.007812-1.1406-0.39453-1.3242-0.99219zm-1.6289-5.3242c-0.23828-0.73828 0.17969-1.5156 0.91797-1.7422 0.73828-0.22266 1.5156 0.17969 1.7422 0.91797 0.22266 0.73828-0.19531 1.5156-0.93359 1.7422-0.125 0.042969-0.26562 0.058593-0.40234 0.058593-0.60156 0-1.1445-0.375-1.3242-0.97656zm-1.6406-5.332c-0.22266-0.73828 0.19531-1.5078 0.93359-1.7422 0.73828-0.22266 1.5078 0.19531 1.7422 0.93359 0.22266 0.73828-0.19531 1.5156-0.93359 1.7422-0.12891 0.042969-0.26562 0.058594-0.40234 0.058594-0.60547-0.003906-1.1484-0.39062-1.3398-0.99219zm-1.6289-5.3164c-0.22266-0.73828 0.19531-1.5156 0.93359-1.7422 0.73828-0.23828 1.5078 0.17969 1.7422 0.91797 0.22266 0.73828-0.19531 1.5156-0.93359 1.7422-0.12891 0.042969-0.26562 0.058594-0.40234 0.058594-0.60547-0.003906-1.1484-0.37891-1.3398-0.97656zm-1.6289-5.3359c-0.22266-0.73828 0.19531-1.5195 0.93359-1.7422 0.73828-0.22266 1.5 0.19531 1.7422 0.93359 0.22266 0.73828-0.19531 1.5078-0.93359 1.7422-0.13672 0.042969-0.26562 0.058593-0.40234 0.058593-0.60156 0-1.1484-0.39062-1.3398-0.99219zm-1.6289-5.3164c-0.22266-0.73828 0.19531-1.5156 0.93359-1.7422 0.73828-0.22266 1.5078 0.17969 1.7305 0.91797 0.23828 0.73828-0.17969 1.5156-0.91797 1.7422-0.13672 0.042968-0.26562 0.058593-0.40234 0.058593-0.60547 0-1.1641-0.37891-1.3438-0.97656zm-1.6289-5.332c-0.22266-0.73828 0.19531-1.5156 0.93359-1.7422 0.73828-0.22266 1.5078 0.19531 1.7305 0.93359 0.23828 0.72266-0.17969 1.5078-0.91797 1.7422-0.13672 0.042969-0.28125 0.058594-0.40234 0.058594-0.60547-0.003906-1.1641-0.39453-1.3438-0.99219zm-1.6328-5.3203c-0.22266-0.73828 0.19531-1.5156 0.91797-1.7422 0.73828-0.22266 1.5156 0.17969 1.7422 0.91797 0.23828 0.73828-0.17969 1.5156-0.91797 1.7422-0.13672 0.042968-0.28125 0.070312-0.40234 0.070312-0.59766-0.003906-1.1562-0.39062-1.3398-0.98828zm-1.6289-5.332c-0.22266-0.73828 0.19531-1.5078 0.91797-1.7422 0.73828-0.22266 1.5156 0.19531 1.7422 0.93359 0.22266 0.73828-0.17969 1.5078-0.91797 1.7305-0.14062 0.050781-0.28125 0.0625-0.41797 0.0625-0.58203 0-1.1445-0.38672-1.3242-0.98438zm-1.6289-5.3164c-0.22266-0.73828 0.19531-1.5156 0.91797-1.7422 0.73828-0.22266 1.5156 0.17969 1.7422 0.91797 0.22266 0.73828-0.17969 1.5156-0.91797 1.7422-0.13672 0.042969-0.28125 0.070313-0.41797 0.070313-0.58594-0.003907-1.1445-0.39453-1.3242-0.98828zm-1.6289-5.332c-0.22266-0.72266 0.17969-1.5078 0.91797-1.7422 0.73828-0.22266 1.5156 0.19531 1.7422 0.93359 0.22266 0.73828-0.17969 1.5156-0.91797 1.7422-0.13672 0.042969-0.28125 0.058594-0.41797 0.058594-0.58594-0.007813-1.1445-0.39844-1.3242-0.99219zm-1.6289-5.3242c-0.22266-0.73828 0.17969-1.5156 0.91797-1.7422 0.73828-0.22266 1.5156 0.17969 1.7422 0.91797 0.22266 0.73828-0.19531 1.5156-0.93359 1.7422-0.12891 0.042969-0.26562 0.070313-0.40234 0.070313-0.59766 0-1.1445-0.38672-1.3242-0.98828zm247.34-2.5352c-0.66797-0.38672-0.89062-1.2422-0.50391-1.9102 0.375-0.66797 1.2266-0.89062 1.8945-0.51562 0.66797 0.38672 0.89062 1.2422 0.51562 1.9102-0.26562 0.44531-0.72266 0.69531-1.2109 0.69531-0.23828 0.007812-0.47266-0.050781-0.69531-0.17969zm-247.39-1.9297c-0.375-0.66797-0.13672-1.5156 0.53125-1.8945 0.66797-0.375 1.5156-0.13672 1.8945 0.54297 0.375 0.66797 0.13672 1.5156-0.53125 1.8945-0.22266 0.11328-0.44531 0.16406-0.68359 0.16406-0.48438-0.003906-0.95703-0.25-1.2109-0.70703zm251.23-0.1875c-0.58203-0.51562-0.625-1.3906-0.10937-1.9648 0.50391-0.57422 1.3789-0.625 1.9609-0.11328 0.57422 0.51562 0.60938 1.3906 0.11328 1.9648-0.28125 0.30859-0.65234 0.46094-1.0469 0.46094-0.33203 0.003906-0.65234-0.10938-0.91797-0.34766zm-8.6562-0.67969c-0.66797-0.375-0.89062-1.2266-0.51562-1.8945 0.38672-0.66797 1.2422-0.89062 1.9102-0.51562 0.66797 0.38672 0.89062 1.2422 0.50391 1.9102-0.25 0.44531-0.72266 0.69531-1.1992 0.69531-0.24219 0.003906-0.47656-0.070313-0.69922-0.19531zm-237.71-1.8516c-0.37891-0.66797-0.13672-1.5156 0.53125-1.8945 0.68359-0.37891 1.5156-0.14062 1.8945 0.53125 0.375 0.66797 0.13672 1.5156-0.53125 1.8945-0.20703 0.12891-0.44531 0.17969-0.68359 0.17969-0.48437 0-0.96094-0.25391-1.2109-0.71094zm232.88-0.93359c-0.65234-0.38672-0.89062-1.2422-0.50391-1.8945 0.38672-0.66797 1.2422-0.90625 1.9102-0.51562 0.65234 0.38672 0.89062 1.2422 0.50391 1.8945-0.25 0.46094-0.72266 0.69531-1.2109 0.69531-0.23828 0-0.47656-0.050782-0.69922-0.17969zm17.195-0.68359c-0.57422-0.51562-0.625-1.3906-0.11328-1.9766 0.51563-0.57422 1.3906-0.60938 1.9648-0.09375 0.58203 0.50391 0.625 1.3906 0.11328 1.9609-0.28125 0.30859-0.65234 0.46094-1.0312 0.46094-0.33594 0-0.66797-0.11328-0.93359-0.35156zm-245.21-1.1133c-0.37891-0.66797-0.14062-1.5156 0.53125-1.8945 0.66797-0.37891 1.5312-0.12891 1.8945 0.54297 0.37891 0.66797 0.14062 1.5156-0.53125 1.8945-0.22266 0.125-0.44531 0.17969-0.68359 0.17969-0.48438 0.003907-0.96094-0.26172-1.2109-0.72266zm223.2-0.98828c-0.66797-0.38672-0.89062-1.2422-0.50391-1.9102 0.37891-0.66797 1.2266-0.89063 1.8945-0.50391 0.66797 0.375 0.89062 1.2422 0.51562 1.8945-0.26562 0.44531-0.72266 0.69531-1.2109 0.69531-0.23438 0.003906-0.47266-0.046875-0.69531-0.17578zm-218.34-1.7227c-0.375-0.66797-0.13672-1.5156 0.53125-1.8945 0.68359-0.37891 1.5156-0.14062 1.8945 0.53125 0.37891 0.68359 0.14062 1.5312-0.53125 1.8945-0.22266 0.125-0.44531 0.17969-0.68359 0.17969-0.48828 0-0.96094-0.25391-1.2109-0.71094zm244.07-0.33594c-0.58203-0.50391-0.625-1.3789-0.125-1.9648 0.51562-0.57422 1.4062-0.60938 1.9766-0.11328 0.57422 0.51562 0.625 1.3906 0.11328 1.9648-0.28125 0.31641-0.65234 0.47266-1.0469 0.47266-0.33594 0.003906-0.65625-0.10938-0.91797-0.35938zm-30.551-0.72656c-0.66797-0.38672-0.89062-1.2422-0.50391-1.9102 0.37891-0.66797 1.2266-0.89062 1.8945-0.50391 0.66797 0.375 0.89062 1.2266 0.50391 1.8945-0.25 0.44531-0.71094 0.69531-1.1992 0.69531-0.23438 0.003906-0.47266-0.046875-0.69531-0.17578zm-208.66-1.6562c-0.375-0.68359-0.13672-1.5195 0.53125-1.8945 0.66797-0.37891 1.5156-0.13672 1.9102 0.53125 0.35938 0.66797 0.125 1.5156-0.54297 1.8945-0.20703 0.125-0.44531 0.17969-0.68359 0.17969-0.49219 0-0.96484-0.26562-1.2148-0.71094zm203.85-1.1406c-0.66797-0.37891-0.89062-1.2266-0.51562-1.8945 0.38672-0.66797 1.2422-0.89062 1.9102-0.51562 0.66797 0.38672 0.89062 1.2422 0.50391 1.9102-0.25 0.44531-0.72266 0.69531-1.1992 0.69531-0.23828-0.003906-0.49219-0.054687-0.69922-0.19531zm39.07-0.625c-0.57422-0.50391-0.625-1.3906-0.11328-1.9648 0.51562-0.57422 1.3906-0.625 1.9766-0.11328 0.57422 0.51562 0.60938 1.3906 0.11328 1.9648-0.28125 0.32031-0.66797 0.47266-1.0469 0.47266-0.33203 0-0.66406-0.125-0.92969-0.35938zm-238.06-0.96484c-0.37891-0.66797-0.13672-1.5195 0.53125-1.8945 0.68359-0.37891 1.5312-0.125 1.8945 0.54297 0.375 0.66797 0.13672 1.5156-0.53125 1.8945-0.22266 0.11328-0.44531 0.16406-0.68359 0.16406-0.48828 0.003906-0.96094-0.24609-1.2109-0.70703zm194.17-1.1953c-0.66797-0.37891-0.90625-1.2422-0.51562-1.8945 0.38672-0.66797 1.2422-0.90625 1.8945-0.51562 0.66797 0.38672 0.90625 1.2422 0.51562 1.9102-0.25 0.44531-0.72266 0.69531-1.2109 0.69531-0.24219-0.003907-0.48047-0.070313-0.68359-0.19531zm-189.31-1.5156c-0.37891-0.66797-0.14062-1.5352 0.53125-1.8945 0.68359-0.375 1.5156-0.13672 1.8945 0.53125 0.37891 0.66797 0.14062 1.5156-0.53125 1.8945-0.20703 0.125-0.44531 0.17969-0.68359 0.17969-0.49219 0-0.96484-0.25391-1.2109-0.71094zm236.91-0.47266c-0.58203-0.51562-0.625-1.3906-0.11328-1.9648 0.51562-0.57422 1.3906-0.625 1.9648-0.11328 0.57422 0.51562 0.625 1.3906 0.11328 1.9648-0.28125 0.30859-0.65234 0.47266-1.0469 0.47266-0.32031 0-0.65234-0.125-0.91797-0.35938zm-52.441-0.79688c-0.66797-0.38672-0.89062-1.2422-0.50391-1.9102 0.375-0.65234 1.2266-0.89062 1.8945-0.50391 0.66797 0.37891 0.89062 1.2422 0.51562 1.8945-0.26562 0.46094-0.73828 0.69531-1.2109 0.69531-0.23438 0.003907-0.47266-0.046875-0.69531-0.17578zm-179.61-1.4609c-0.375-0.66797-0.13672-1.5156 0.53125-1.8945 0.68359-0.375 1.5312-0.13672 1.9102 0.54297 0.36328 0.66797 0.12891 1.5195-0.54297 1.8945-0.20703 0.11328-0.44531 0.17969-0.68359 0.17969-0.49219 0-0.96484-0.26172-1.2148-0.72266zm174.8-1.3242c-0.66797-0.38672-0.89062-1.2422-0.51562-1.9102 0.38672-0.66797 1.2422-0.89063 1.9102-0.50391 0.66797 0.37891 0.89062 1.2266 0.50391 1.8945-0.25 0.44531-0.72266 0.69531-1.1992 0.69531-0.23828 0.003906-0.47656-0.046875-0.69922-0.17578zm60.961-0.56641c-0.57422-0.51563-0.60938-1.3906-0.097656-1.9648 0.50391-0.58203 1.3789-0.625 1.9648-0.11328 0.57422 0.51563 0.60938 1.3906 0.11328 1.9648-0.28125 0.30859-0.66797 0.46094-1.0469 0.46094-0.33594-0.003906-0.66797-0.11328-0.93359-0.34766zm-230.9-0.82422c-0.375-0.66797-0.13672-1.5156 0.53125-1.8945 0.68359-0.375 1.5352-0.13672 1.8945 0.53125 0.375 0.68359 0.13672 1.5195-0.53125 1.8945-0.20703 0.125-0.44531 0.17969-0.68359 0.17969-0.48828-0.003906-0.96094-0.25391-1.2109-0.71094zm165.12-1.3945c-0.66797-0.38672-0.89062-1.2422-0.51562-1.9102 0.38672-0.66797 1.2422-0.89062 1.9102-0.51562 0.66797 0.38672 0.89062 1.2422 0.50391 1.9102-0.25 0.44531-0.72266 0.69531-1.2109 0.69531-0.24219 0-0.47656-0.050781-0.6875-0.17969zm-160.26-1.3203c-0.375-0.68359-0.13672-1.5156 0.53125-1.9102 0.68359-0.375 1.5156-0.125 1.9102 0.54297 0.35937 0.66797 0.125 1.5156-0.54297 1.8945-0.20703 0.125-0.44531 0.17969-0.68359 0.17969-0.49219 0.003906-0.96484-0.26172-1.2148-0.70703zm229.76-0.61328c-0.57422-0.51562-0.625-1.3906-0.11328-1.9805 0.51563-0.56641 1.3906-0.60938 1.9648-0.09375 0.58203 0.50391 0.625 1.3906 0.11328 1.9648-0.28125 0.30859-0.65234 0.46094-1.0312 0.46094-0.33984-0.003906-0.67188-0.11328-0.93359-0.35156zm-74.332-0.86328c-0.66797-0.37891-0.89062-1.2422-0.50391-1.8945 0.37891-0.66797 1.2422-0.90625 1.8945-0.51562 0.66797 0.38672 0.89062 1.2422 0.51562 1.9102-0.26562 0.44531-0.72266 0.69531-1.2109 0.69531-0.23438-0.003906-0.47266-0.070313-0.69531-0.19531zm-150.57-1.25c-0.37891-0.66797-0.14062-1.5156 0.53125-1.8945 0.68359-0.375 1.5312-0.13672 1.9102 0.53125 0.35938 0.68359 0.125 1.5156-0.54297 1.8945-0.20703 0.125-0.44531 0.17969-0.68359 0.17969-0.48828-0.007812-0.96094-0.25391-1.2148-0.71094zm145.75-1.5352c-0.66797-0.38672-0.89062-1.2422-0.50391-1.9102 0.37891-0.65234 1.2266-0.89062 1.8945-0.50391 0.66797 0.37891 0.89062 1.2422 0.51562 1.8945-0.26562 0.46094-0.73828 0.71094-1.2109 0.71094-0.23438 0-0.47266-0.066406-0.69531-0.19141zm82.863-0.51562c-0.58203-0.50391-0.625-1.3789-0.11328-1.9648 0.50391-0.57422 1.3906-0.625 1.9648-0.11328 0.57422 0.51562 0.625 1.4062 0.11328 1.9766-0.28125 0.30859-0.65234 0.46094-1.0469 0.46094-0.33594 0.003906-0.65234-0.10938-0.91797-0.35938zm-223.76-0.66797c-0.37891-0.68359-0.14062-1.5156 0.53125-1.8945 0.68359-0.37891 1.5156-0.14062 1.8945 0.53125 0.38672 0.66797 0.14062 1.5156-0.53125 1.8945-0.20703 0.12891-0.44531 0.17969-0.68359 0.17969-0.48437-0.003906-0.95703-0.26562-1.2109-0.71094zm136.08-1.6016c-0.66797-0.38672-0.89062-1.2422-0.51562-1.9102 0.38672-0.66797 1.2422-0.89062 1.9102-0.50391 0.66797 0.37891 0.89062 1.2266 0.50391 1.8945-0.25 0.44531-0.72266 0.69531-1.1992 0.69531-0.23828 0.003907-0.47656-0.046875-0.69922-0.17578zm-131.22-1.1289c-0.375-0.66797-0.13672-1.5156 0.53125-1.8945 0.68359-0.37891 1.5352-0.14062 1.8945 0.54297 0.37891 0.66797 0.13672 1.5156-0.53125 1.8945-0.20703 0.11328-0.44531 0.16406-0.68359 0.16406-0.48438 0.003906-0.96094-0.24609-1.2109-0.70703zm222.6-0.75c-0.57422-0.51562-0.625-1.3906-0.11328-1.9648 0.51562-0.56641 1.3906-0.625 1.9766-0.10938 0.57422 0.51562 0.60938 1.3906 0.097656 1.9609-0.26562 0.30859-0.65234 0.47266-1.0312 0.47266-0.33203 0.003906-0.66406-0.125-0.92969-0.35938zm-96.199-0.90625c-0.66797-0.38672-0.90625-1.2422-0.51562-1.9102 0.38672-0.66797 1.2422-0.89063 1.8945-0.51563 0.66797 0.38672 0.90625 1.2422 0.51562 1.9102-0.25 0.44531-0.72266 0.69531-1.2109 0.69531-0.22266 0-0.47266-0.050781-0.68359-0.17969zm-121.54-1.0547c-0.375-0.66797-0.13672-1.5156 0.53125-1.8945 0.68359-0.37891 1.5156-0.14062 1.8945 0.53125 0.375 0.66797 0.13672 1.5156-0.53125 1.8945-0.20703 0.125-0.44531 0.17969-0.68359 0.17969-0.48437-0.003906-0.96094-0.25391-1.2109-0.71094zm116.71-1.7461c-0.66797-0.375-0.89062-1.2422-0.50391-1.8945 0.37891-0.66797 1.2422-0.89062 1.8945-0.51562 0.66797 0.38672 0.89062 1.2422 0.51562 1.9102-0.26562 0.44531-0.72266 0.69531-1.2109 0.69531-0.23828 0-0.46875-0.066406-0.69531-0.19531zm104.75-0.44141c-0.57422-0.51562-0.625-1.3906-0.11328-1.9648 0.51562-0.57422 1.3906-0.625 1.9648-0.11328 0.57422 0.51562 0.625 1.3906 0.11328 1.9648-0.28125 0.30859-0.65234 0.47266-1.0469 0.47266-0.32031 0.003907-0.65234-0.125-0.91797-0.35938zm-216.6-0.54688c-0.37891-0.66797-0.14062-1.5156 0.54297-1.8945 0.66797-0.37891 1.5156-0.14062 1.8945 0.54297 0.375 0.66797 0.125 1.5156-0.54297 1.8945-0.20703 0.11328-0.44531 0.17969-0.68359 0.17969-0.48828 0.003906-0.96094-0.26172-1.2109-0.72266zm107.04-1.793c-0.66797-0.38672-0.89062-1.2422-0.50391-1.8945 0.37891-0.66797 1.2266-0.90625 1.8945-0.51562 0.66797 0.38672 0.89062 1.2422 0.50391 1.9102-0.25 0.44531-0.72266 0.69531-1.1992 0.69531-0.23828-0.003906-0.47266-0.070313-0.69531-0.19531zm-102.17-0.92187c-0.37891-0.66797-0.14062-1.5195 0.53125-1.8945 0.68359-0.37891 1.5312-0.13672 1.8945 0.53125 0.37891 0.68359 0.14063 1.5156-0.53125 1.8945-0.20703 0.125-0.44531 0.17969-0.68359 0.17969-0.49219 0-0.96484-0.25-1.2109-0.71094zm215.46-0.89063c-0.58203-0.51562-0.625-1.3906-0.11328-1.9648 0.50391-0.58203 1.3789-0.625 1.9648-0.11328 0.57422 0.51562 0.60938 1.3906 0.11328 1.9648-0.28125 0.30859-0.66797 0.46094-1.0469 0.46094-0.33594 0-0.66797-0.10938-0.91797-0.34766zm-118.1-0.97266c-0.66797-0.38672-0.89062-1.2422-0.51562-1.9102 0.38672-0.66797 1.2422-0.89062 1.9102-0.50391 0.66797 0.375 0.89062 1.2266 0.50391 1.8945-0.25 0.44531-0.72266 0.69531-1.1992 0.69531-0.24219 0.003906-0.49219-0.050782-0.69922-0.17578zm-92.5-0.84766c-0.375-0.68359-0.13672-1.5352 0.53125-1.8945 0.68359-0.38672 1.5195-0.13672 1.9102 0.53125 0.37891 0.66797 0.125 1.5156-0.54297 1.8945-0.20703 0.125-0.44531 0.17969-0.68359 0.17969-0.48828 0-0.96094-0.26563-1.2148-0.71094zm87.664-1.9375c-0.65234-0.38672-0.89062-1.2422-0.50391-1.9102 0.375-0.66797 1.2422-0.89062 1.8945-0.51562 0.66797 0.38672 0.90625 1.2422 0.51562 1.9102-0.26562 0.44531-0.72266 0.69531-1.2109 0.69531-0.23047 0-0.46875-0.050782-0.69531-0.17969zm126.64-0.39062c-0.57422-0.51562-0.625-1.3906-0.11328-1.9648 0.51562-0.58203 1.3906-0.625 1.9648-0.11328 0.58203 0.50391 0.625 1.3789 0.11328 1.9648-0.28125 0.30859-0.65234 0.46094-1.0312 0.46094-0.33594 0-0.66797-0.10938-0.93359-0.34766zm-209.44-0.40234c-0.375-0.66797-0.13672-1.5156 0.54297-1.8945 0.66797-0.375 1.5195-0.13672 1.8945 0.53125 0.37891 0.68359 0.125 1.5156-0.54297 1.9102-0.20703 0.11328-0.44531 0.16406-0.68359 0.16406-0.48828-0.003907-0.96484-0.25-1.2109-0.71094zm77.984-2.0078c-0.66797-0.375-0.89062-1.2266-0.50391-1.8945 0.375-0.66797 1.2266-0.89063 1.8945-0.51563 0.66797 0.38672 0.89062 1.2422 0.51562 1.9102-0.26562 0.44531-0.72266 0.69531-1.2109 0.69531-0.23438 0-0.47266-0.050781-0.69531-0.19531zm-73.125-0.70703c-0.37891-0.68359-0.14062-1.5156 0.53125-1.8945 0.68359-0.375 1.5312-0.13672 1.8945 0.53125 0.38672 0.66797 0.13672 1.5195-0.53125 1.8945-0.20703 0.125-0.44531 0.17969-0.68359 0.17969-0.48828-0.003906-0.96094-0.25391-1.2109-0.71094zm208.29-1.043c-0.57422-0.50391-0.60937-1.3789-0.097656-1.9648 0.50391-0.57422 1.3906-0.625 1.9648-0.11328 0.57422 0.51562 0.60938 1.3906 0.11328 1.9766-0.28125 0.30859-0.65234 0.46094-1.0469 0.46094-0.33594 0-0.65625-0.10938-0.93359-0.35938zm-139.98-1.0352c-0.66797-0.38672-0.89062-1.2422-0.51562-1.8945 0.38672-0.66797 1.2422-0.90625 1.9102-0.51562 0.66797 0.38672 0.89062 1.2422 0.50391 1.9102-0.25 0.44531-0.72266 0.69531-1.1992 0.69531-0.23828 0-0.47656-0.070313-0.69922-0.19531zm-63.449-0.65234c-0.37891-0.66797-0.14062-1.5156 0.54297-1.8945 0.66797-0.375 1.5156-0.13672 1.8945 0.54297 0.375 0.66797 0.125 1.5156-0.54297 1.8945-0.20703 0.11328-0.44531 0.17969-0.68359 0.17969-0.48828 0.003906-0.94531-0.26172-1.2109-0.72266zm58.633-2.1289c-0.66797-0.38672-0.90625-1.2422-0.51562-1.9102 0.38672-0.65234 1.2422-0.89062 1.9102-0.50391 0.66797 0.375 0.89062 1.2422 0.50391 1.8945-0.25 0.46094-0.72266 0.69531-1.1992 0.69531-0.23828 0.003906-0.49219-0.054688-0.69922-0.17578zm-53.773-0.58594c-0.375-0.66797-0.13672-1.5156 0.53125-1.8945 0.68359-0.375 1.5352-0.13672 1.8945 0.53125 0.37891 0.68359 0.14062 1.5312-0.53125 1.8945-0.20703 0.125-0.44531 0.17969-0.68359 0.17969-0.48828-0.003906-0.96094-0.25-1.2109-0.71094zm202.29 0.25c-0.57422-0.51562-0.625-1.3906-0.11328-1.9609 0.51562-0.57422 1.3906-0.625 1.9648-0.11328 0.58203 0.51562 0.625 1.3906 0.11328 1.9648-0.26562 0.30859-0.65234 0.47266-1.0312 0.47266-0.33984 0-0.67188-0.125-0.93359-0.36328zm-197.43-2.9648c-0.375-0.68359-0.13672-1.5312 0.53125-1.9102 0.68359-0.375 1.5352-0.125 1.9102 0.54297 0.37891 0.66797 0.125 1.5156-0.54297 1.8945-0.20703 0.11328-0.44531 0.17969-0.68359 0.17969-0.48828 0-0.96094-0.26172-1.2148-0.70703zm44.086 0.51562c-0.66797-0.38672-0.89062-1.2422-0.50391-1.9102 0.38672-0.66797 1.2422-0.89062 1.8945-0.50391 0.66797 0.375 0.89062 1.2266 0.51562 1.8945-0.26562 0.44531-0.72266 0.69531-1.2109 0.69531-0.23438 0.003906-0.47266-0.054688-0.69531-0.17578zm157.06-1.7031c-0.58203-0.51562-0.625-1.3906-0.11328-1.9648 0.51562-0.57422 1.3906-0.625 1.9648-0.11328 0.57422 0.51562 0.625 1.3906 0.11328 1.9648-0.28125 0.30859-0.65234 0.46094-1.0469 0.46094-0.32031 0.003906-0.65234-0.10938-0.91797-0.34766zm-196.29-1.543c-0.37891-0.66797-0.14062-1.5156 0.53125-1.8945 0.68359-0.37891 1.5312-0.14062 1.9102 0.53125 0.35938 0.68359 0.125 1.5156-0.54297 1.8945-0.20703 0.12891-0.44531 0.17969-0.66797 0.17969-0.50391 0-0.97656-0.25-1.2305-0.71094zm34.406 0.44531c-0.66797-0.37891-0.89062-1.2266-0.50391-1.8945 0.37891-0.66797 1.2266-0.89062 1.8945-0.51562 0.66797 0.38672 0.89062 1.2422 0.51562 1.9102-0.26562 0.44531-0.72266 0.69531-1.2109 0.69531-0.23437 0-0.47266-0.058594-0.69531-0.19531zm-29.547-3.1562c-0.37891-0.68359-0.14062-1.5312 0.53125-1.8945 0.68359-0.37891 1.5312-0.14062 1.8945 0.53125 0.38672 0.66797 0.14062 1.5156-0.53125 1.8945-0.20703 0.125-0.44531 0.17969-0.68359 0.17969-0.48437-0.003906-0.96094-0.26562-1.2109-0.71094zm24.73 0.37109c-0.66797-0.37891-0.89062-1.2422-0.51562-1.8945 0.38672-0.66797 1.2422-0.90625 1.9102-0.51563 0.66797 0.38672 0.89062 1.2422 0.50391 1.9102-0.25 0.44531-0.72266 0.69531-1.1992 0.69531-0.23828 0-0.47656-0.070312-0.69922-0.19531zm170.4-0.26562c-0.57422-0.51562-0.60938-1.3906-0.11328-1.9609 0.51562-0.58594 1.3906-0.625 1.9766-0.11328 0.57422 0.50391 0.60938 1.3906 0.11328 1.9609-0.28125 0.30859-0.66797 0.46094-1.0469 0.46094-0.33203 0.003906-0.66406-0.10938-0.92969-0.34766zm-190.27-2.8398c-0.375-0.66797-0.13672-1.5156 0.54297-1.8945 0.66797-0.37891 1.5156-0.14062 1.8945 0.54297 0.37891 0.66797 0.14062 1.5156-0.54297 1.8945-0.20703 0.11328-0.44531 0.16406-0.68359 0.16406-0.48438 0.003907-0.96094-0.24609-1.2109-0.70703zm15.043 0.32031c-0.65234-0.38672-0.89062-1.2422-0.50391-1.9102 0.38672-0.65234 1.2422-0.89062 1.8945-0.50391 0.68359 0.37891 0.90625 1.2422 0.51562 1.9102-0.25 0.44531-0.72266 0.68359-1.2109 0.68359-0.23828 0.003906-0.47266-0.054688-0.69531-0.17969zm178.95-1.6289c-0.57422-0.51562-0.625-1.3906-0.11328-1.9766 0.51562-0.57422 1.3906-0.60938 1.9648-0.097656 0.57422 0.50391 0.625 1.3789 0.11328 1.9648-0.28125 0.30859-0.65234 0.46094-1.0312 0.46094-0.33594 0-0.66797-0.11328-0.93359-0.35156zm-189.13-1.4062c-0.375-0.66797-0.13672-1.5352 0.53125-1.8945 0.68359-0.375 1.5352-0.13672 1.9102 0.53125 0.35938 0.66797 0.125 1.5156-0.54297 1.8945-0.20703 0.125-0.44531 0.17969-0.66797 0.17969-0.50781 0-0.98047-0.25-1.2305-0.71094zm5.3672 0.25391c-0.66797-0.38672-0.89062-1.2422-0.50391-1.9102 0.375-0.66797 1.2422-0.89062 1.8945-0.50391 0.66797 0.37891 0.89062 1.2266 0.51562 1.8945-0.26562 0.44531-0.72266 0.69531-1.2109 0.69531-0.24219 0.003906-0.48047-0.054688-0.69531-0.17578zm187.46-2.9961c-0.57422-0.51562-0.60938-1.4062-0.097656-1.9766 0.50391-0.57422 1.3906-0.625 1.9648-0.11328 0.57422 0.51562 0.60938 1.3906 0.11328 1.9648-0.28125 0.32031-0.65234 0.47266-1.0469 0.47266-0.33203 0-0.65234-0.125-0.93359-0.34766zm3.7188-4.1602c-0.57422-0.51562-0.625-1.3906-0.11328-1.9648 0.51562-0.57422 1.3906-0.625 1.9648-0.11328 0.58203 0.51562 0.625 1.3906 0.11328 1.9648-0.26562 0.30859-0.65234 0.47266-1.0312 0.47266-0.33203 0-0.66797-0.125-0.93359-0.35938zm3.7188-4.1484c-0.57422-0.51562-0.625-1.3906-0.11328-1.9648 0.51562-0.58203 1.3906-0.625 1.9648-0.11328 0.57422 0.51562 0.625 1.3906 0.11328 1.9648-0.28125 0.30859-0.65234 0.47266-1.0469 0.47266-0.31641 0-0.65625-0.125-0.91797-0.35938zm3.7031-4.1484c-0.57422-0.51563-0.60938-1.3906-0.11328-1.9805 0.51562-0.56641 1.3906-0.60938 1.9766-0.09375 0.57422 0.50391 0.60938 1.3906 0.11328 1.9648-0.28125 0.30859-0.66797 0.46094-1.0469 0.46094-0.32812-0.007812-0.66406-0.11719-0.92969-0.35156zm3.7148-4.1562c-0.57422-0.51563-0.625-1.3906-0.11328-1.9766 0.51562-0.57422 1.3906-0.60938 1.9648-0.097656 0.57422 0.50391 0.625 1.3789 0.11328 1.9648-0.28125 0.30859-0.65234 0.46094-1.0312 0.46094-0.33203 0-0.66797-0.11328-0.93359-0.35156zm3.7188-4.1602c-0.58203-0.50391-0.625-1.3906-0.11328-1.9609 0.50391-0.57422 1.3906-0.60938 1.9648-0.11328 0.57422 0.51563 0.60937 1.3906 0.11328 1.9609-0.28125 0.32031-0.65234 0.47266-1.0469 0.47266-0.33203 0.003906-0.65234-0.125-0.91797-0.35938z"/>
  <path d="m462.61 569.02c-0.72266-0.23828-1.1133-1.0273-0.875-1.7539 0.23828-0.73828 1.0312-1.1289 1.7578-0.875 0.73828 0.23828 1.1289 1.0312 0.89062 1.7539-0.19531 0.58203-0.73828 0.96094-1.3203 0.96094-0.16406 0-0.30078-0.03125-0.45312-0.085938zm1.7695-5.2773c-0.73828-0.25-1.1289-1.0273-0.89062-1.7656 0.25-0.72266 1.0273-1.1133 1.7656-0.875 0.72266 0.25 1.1133 1.0312 0.875 1.7656-0.19531 0.57422-0.73828 0.94531-1.3203 0.94531-0.13672 0-0.29297-0.027344-0.42969-0.070312zm1.75-5.2891c-0.73828-0.23828-1.1289-1.0312-0.875-1.7539 0.23828-0.73828 1.0312-1.1289 1.7539-0.875 0.73828 0.23828 1.1289 1.0312 0.875 1.7539-0.19531 0.58203-0.72266 0.94531-1.3086 0.94531-0.15234-0.003907-0.28906-0.019532-0.44531-0.070313zm1.7578-5.2812c-0.72266-0.23828-1.1133-1.0273-0.875-1.7656 0.25-0.72266 1.0312-1.1133 1.7695-0.875 0.72266 0.25 1.1133 1.0273 0.875 1.7656-0.19531 0.57422-0.73828 0.94531-1.3203 0.94531-0.14453 0-0.29688-0.027344-0.44922-0.070313zm1.7656-5.2734c-0.73828-0.25-1.1289-1.0469-0.89062-1.7656 0.25-0.73828 1.0273-1.1289 1.7656-0.875 0.72266 0.23828 1.1133 1.0273 0.875 1.7539-0.19531 0.58203-0.73828 0.94531-1.3203 0.94531-0.13672-0.003906-0.29297-0.015625-0.42969-0.058593zm1.7578-5.293c-0.73828-0.25-1.1289-1.0312-0.875-1.7656 0.23828-0.72266 1.0312-1.1133 1.7539-0.875 0.73828 0.25 1.1289 1.0273 0.89062 1.7539-0.19531 0.58203-0.73828 0.96094-1.3203 0.96094-0.16016 0-0.29688-0.03125-0.44922-0.074219zm1.7539-5.2891c-0.72266-0.23828-1.1133-1.0312-0.875-1.7539 0.25-0.73828 1.0312-1.1289 1.7695-0.875 0.72266 0.23828 1.1133 1.0273 0.875 1.7539-0.19531 0.58203-0.73828 0.94531-1.3203 0.94531-0.14453-0.003907-0.30078-0.015625-0.44922-0.070313zm1.7656-5.2812c-0.73828-0.25-1.1289-1.0312-0.89062-1.7695 0.25-0.72266 1.0273-1.1133 1.7656-0.875 0.72266 0.25 1.1289 1.0312 0.875 1.7578-0.19531 0.58203-0.73828 0.96094-1.3203 0.96094-0.13672 0-0.28906-0.03125-0.42969-0.074219zm1.7578-5.2891c-0.72266-0.23828-1.1133-1.0312-0.875-1.7539 0.23828-0.73828 1.0312-1.1289 1.7539-0.875 0.73828 0.23828 1.1289 1.0312 0.89063 1.7578-0.19531 0.58203-0.73828 0.96094-1.3203 0.96094-0.15625-0.003907-0.3125-0.03125-0.44922-0.089844zm1.7656-5.2734c-0.73828-0.25-1.1289-1.0312-0.89062-1.7695 0.25-0.72266 1.0312-1.1133 1.7695-0.875 0.72266 0.23828 1.1289 1.0312 0.875 1.7695-0.19531 0.57422-0.73828 0.94531-1.3203 0.94531-0.14062 0-0.29297-0.027344-0.43359-0.070313zm1.7578-5.293c-0.72266-0.23828-1.1289-1.0312-0.875-1.7578 0.23828-0.73828 1.0117-1.1289 1.7539-0.875 0.73828 0.23828 1.1289 1.0312 0.875 1.7539-0.19531 0.58594-0.73828 0.94531-1.3086 0.94531-0.16016 0-0.30859-0.011719-0.44531-0.066406zm1.75-5.2773c-0.72266-0.25-1.1133-1.0312-0.875-1.7695 0.25-0.72266 1.0312-1.1289 1.7539-0.875 0.73828 0.25 1.1289 1.0312 0.89062 1.7539-0.19531 0.58203-0.73828 0.96094-1.3203 0.96094-0.14062 0-0.29297-0.027344-0.44922-0.070312zm1.7734-5.293c-0.73828-0.23828-1.1289-1.0273-0.89062-1.7539 0.25-0.73828 1.0312-1.1289 1.7695-0.89062 0.72266 0.25 1.1289 1.0469 0.875 1.7656-0.19531 0.58203-0.73828 0.94531-1.3203 0.94531-0.14844 0.007813-0.29688-0.007812-0.43359-0.066406zm1.75-5.2734c-0.72266-0.25-1.1289-1.0273-0.875-1.7656 0.23828-0.72266 1.0273-1.1289 1.7539-0.875 0.73828 0.23828 1.1289 1.0312 0.875 1.7656-0.17969 0.57422-0.73828 0.94531-1.3203 0.94531-0.14062-0.003906-0.29688-0.03125-0.43359-0.070312zm1.7539-5.2969c-0.72266-0.23828-1.1133-1.0273-0.875-1.7539 0.25-0.73828 1.0312-1.1289 1.7656-0.89062 0.72266 0.25 1.1133 1.0469 0.875 1.7656-0.19531 0.58203-0.73828 0.94531-1.3203 0.94531-0.14062 0.007812-0.28906-0.007813-0.44531-0.066407zm1.7695-5.2734c-0.73828-0.25-1.1289-1.0273-0.89062-1.7656 0.25-0.72266 1.0469-1.1289 1.7695-0.875 0.72266 0.23828 1.1289 1.0273 0.875 1.7539-0.19531 0.58203-0.73828 0.96094-1.3203 0.96094-0.14062-0.003906-0.29687-0.03125-0.43359-0.074219zm1.7539-5.2891c-0.72266-0.23828-1.1289-1.0312-0.875-1.7539 0.23828-0.73828 1.0273-1.1289 1.7539-0.89062 0.73828 0.25 1.1289 1.0273 0.89062 1.7656-0.19531 0.58203-0.73828 0.94531-1.3203 0.94531-0.15625 0.003906-0.29297-0.011719-0.44922-0.066407zm1.7539-5.2773c-0.72266-0.25-1.1133-1.0312-0.875-1.7656 0.25-0.72266 1.0312-1.1289 1.7656-0.875 0.72266 0.23828 1.1133 1.0273 0.875 1.7656-0.19531 0.57422-0.73828 0.94531-1.3203 0.94531-0.14844-0.003906-0.29297-0.03125-0.44531-0.070312zm1.7695-5.293c-0.73828-0.23828-1.1289-1.0312-0.89062-1.7539 0.25-0.73828 1.0469-1.1289 1.7695-0.89062 0.73828 0.25 1.1289 1.0469 0.875 1.7695-0.19531 0.58203-0.73828 0.94531-1.3203 0.94531-0.14062 0-0.29297-0.015624-0.43359-0.070312zm1.7539-5.2773c-0.72266-0.25-1.1289-1.0312-0.875-1.7656 0.23828-0.72266 1.0273-1.1289 1.7539-0.875 0.73828 0.23828 1.1289 1.0312 0.89062 1.7578-0.19531 0.58203-0.73828 0.96094-1.3203 0.96094-0.16016-0.007812-0.29688-0.035156-0.44922-0.078125zm1.7695-5.2891c-0.73828-0.25-1.1289-1.0312-0.89062-1.7539 0.25-0.73828 1.0312-1.1289 1.7656-0.89063 0.72266 0.25 1.1289 1.0312 0.875 1.7695-0.19531 0.58203-0.73828 0.94531-1.3203 0.94531-0.13672 0-0.28906-0.027344-0.42969-0.070312zm1.75-5.2891c-0.72266-0.23828-1.1289-1.0195-0.875-1.7578 0.23828-0.72266 1.0312-1.1289 1.7578-0.875 0.73828 0.23828 1.1289 1.0312 0.875 1.7539-0.19531 0.58594-0.73828 0.96094-1.3086 0.96094-0.15625-0.003906-0.29297-0.03125-0.44922-0.082031zm1.7578-5.2812c-0.72266-0.23828-1.1133-1.0312-0.875-1.7578 0.25-0.73828 1.0273-1.1289 1.7539-0.89062 0.73828 0.25 1.1289 1.0312 0.89062 1.7695-0.19531 0.58203-0.73828 0.94531-1.3203 0.94531-0.15625 0.003906-0.29688-0.011719-0.44922-0.066407zm1.7656-5.2773c-0.73828-0.25-1.1289-1.0312-0.89063-1.7695 0.25-0.72266 1.0312-1.1289 1.7656-0.875 0.73828 0.23828 1.1289 1.0312 0.875 1.7539-0.19531 0.58203-0.73828 0.96094-1.3203 0.96094-0.13672 0-0.28516-0.027344-0.42969-0.070312z"/>
  <path d="m377.16 573.25h-84.562l-0.33984-0.21484-41.57-26.602 125.29-36.434v-135.38l-123.61-73.441 36.48-120.55h177.24v2.7852h-175.17l-35.254 116.48 123.1 73.141v139.06l-1.0039 0.28906-120.41 35.012 36.059 23.074h83.746z"/>
  <path d="m166.61 404.16 2.3867-1.4336 86.215 143.46-2.3867 1.4336z"/>
  <path d="m166.41 348.87h2.7852v54.574h-2.7852z"/>
  <path d="m166.73 402.54 86.246-102.89 2.1328 1.7891-86.246 102.89z"/>
  <path d="m253.29 202.66 35.871-21.82 1.4453 2.3789-35.871 21.82z"/>
  <path d="m166.59 348.15 86.262-144.99 2.3945 1.4219-86.262 144.99z"/>
  <path d="m462.93 573.25h-89.824v-2.7812h89.004l36.059-23.074-121.41-35.301v-139.06l0.68359-0.40234 122.41-72.738-35.547-117.46 2.668-0.80469 36.176 119.55-123.61 73.441v135.38l125.3 36.434z"/>
  <path d="m500.34 546.2 86.129-143.5 2.3867 1.4336-86.129 143.5z"/>
  <path d="m586.33 348.87h2.7852v54.574h-2.7852z"/>
  <path d="m500.46 301.41 2.1328-1.7891 86.219 102.92-2.1328 1.7891z"/>
 </g>
</svg>
