<?xml version="1.0" encoding="UTF-8"?>
<svg width="752pt" height="752pt" version="1.1" viewBox="0 0 752 752" xmlns="http://www.w3.org/2000/svg">
 <path d="m376.33 151.24-0.33203-0.1875-194.74 113.66 0.94531 223.72v0.33203l193.79 112h0.28516l193.03-111.67h0.28516l1.0898-223.72v-0.33203zm189.43 334.49-66.207-33.953 26.52-72.27 39.875 106.27zm-379.86 0 39.969-106.55 26.664 72.602-66.301 34.098zm4.7344-222.96 107.93-21.074-46.031 55.457-65.969-32.156zm374.6 2.2266-65.781 32.203-45.938-55.551 107.88 21.121zm-112.95-24.766-66.301-79.941 172.34 100.68zm-38.41 211.17h-75.773l-42.004-77.098 39.07-71.984h81.738l38.977 71.793zm-76.199-153.68 38.312-70.66 38.359 70.66zm81.457 153.68 39.355-72.457 39.402 72.457zm-113.66-211.17 69.285-13.543-38.598 71.039-78.141-0.003906zm28.414 62.086-38.406 70.754-38.453-70.754zm-41.012 75.773-39.543 72.504-26.805-73.121 26.992-71.891zm0.66406 1.2305 39.262 72.27h-78.57zm39.828 73.215 38.219 70.281-70.562-14.207-46.555-56.074zm79.895 0-37.273 68.766-37.41-68.766zm5.2578 0h79.09l-46.508 56.074-71.039 14.207zm80.227-1.9414-39.594-72.883 39.211-72.125 27.09 72.172zm-42.246-77.715-38.312-70.562h76.672zm-40.777-75.156-38.598-71.039 69.094 13.496 47.645 57.543zm-39.117-72.316v-69.285l68.434 82.547zm-1.1367 0-68.668 13.262 68.668-82.781zm-75.773 14.824-106.08 20.742 172.24-100.68zm-49.441 60.949-26.141 69.711-36.844-100.54zm2.793 151.55 46.035 55.883-111.05-22.258zm125.21 143.54v-68.246l68.195-13.688-67.484 81.504zm69.996-82.262 107.69-21.598-174.09 101.77zm50.863-61.328 64.879 33.434-111.1 22.496zm28.746-81.41-26.238-70.043 63.223-30.926zm-343.2-102.2 1.0898 0.56641 37.887 102.91-38.551 102.34-0.66406-154.48zm119.11 244.94 66.301 80.508-174.04-102.11zm1.8945 0.37891 67.957 13.637v68.246h-0.33203zm261.13-39.496-38.312-102.11 37.887-103.24 1.043-0.51953v27.75z"/>
</svg>
