<?xml version="1.0" encoding="UTF-8" standalone="yes"?>

<!-- created by libisp v5.0.2 - 18/11/2019 - 13h21m41s -->

<svg version="1.1" id="Layer_1" xmlns="http://www.w3.org/2000/svg"
     xmlns:xlink="http://www.w3.org/1999/xlink" width="100" height="100"
     viewBox="0 0 100 100" overflow="visible" enable-background="new 0 0 100 100"
     xml:space="preserve">
  <g transform="translate(0.0,50.0) scale(0.010,-0.010)">
    <path fill="#555555" stroke="none" d="M2742.9,3154.9c-916.8-916.8-1719.5-1731.7-1784.7-1811.2c-1063.5-1310-1147-3188.4-203.7-4592.1c625.4-931,1564.6-1517.8,2687.2-1682.8c348.4-50.9,979.9-30.6,1314.1,40.7C5371-4760,5945.6-4489,6418.2-4108.1c83.5,67.2,902.5,867.9,1817.3,1780.6C9816.5-756.7,9902-667,9900-599.8c0,65.2-57.1,128.3-800.7,869.9c-743.6,745.6-804.7,800.7-869.9,800.7c-65.2,0-134.5-65.2-1039-963.6c-2400-2387.7-2375.5-2363.3-2567-2457c-242.4-116.1-395.2-152.8-651.9-152.8c-248.6,2.1-411.5,38.7-619.3,144.7c-493,244.5-786.4,721.2-786.4,1267.2c0,242.4,38.7,411.5,146.7,633.6l81.5,173.2l1678.7,1680.8c1576.9,1578.9,1678.8,1686.9,1678.8,1752.1c0,65.2-55,126.3-800.7,869.9c-745.6,745.6-804.7,800.7-869.9,800.7C4413.5,4819.4,4311.6,4721.6,2742.9,3154.9z M5112.3,3770.2l621.4-621.4l-376.9-376.9L4979.9,2395l-625.5,625.5L3726.9,3648l370.8,370.8c205.8,205.8,376.9,372.8,383,372.8S4770,4112.5,5112.3,3770.2z M4114,2771.9l621.4-621.4L3661.7,1076.9C2549.4-39.6,2474-123.1,2355.8-406.3C2254-648.7,2231.6-773,2231.6-1088.8c-2-246.5,6.1-321.9,44.8-454.3c181.3-635.6,643.8-1092,1265.2-1248.9c364.7-93.7,806.8-61.1,1132.7,81.5c287.3,128.3,334.1,169.1,1456.7,1287.5L7220.9-335l631.6-631.6l631.6-631.6l-927-929C6483.4-3602.8,6241-3831,5949.6-4024.5c-1183.7-796.6-2758.5-798.6-3938.1-4.1C1235.3-3507.1,707.7-2720.6,503.9-1781.5c-40.7,187.4-44.8,273-46.9,682.5c0,415.6,6.1,493,48.9,692.7c120.2,566.4,330,1024.8,674.3,1477.1c97.8,130.4,503.2,546,1220.3,1257c588.8,586.7,1075.7,1065.5,1081.8,1065.5S3771.8,3114.2,4114,2771.9z M8858.9,27.7c338.2-334.1,613.2-613.2,613.2-621.4c0-24.5-719.2-739.5-743.6-739.5c-12.2,0-299.5,281.2-641.7,623.4L7465.4-88.5l376.9,364.7c207.8,201.7,383,362.6,391.1,360.6C8239.6,634.8,8520.7,359.8,8858.9,27.7z"/>
  </g>
</svg>
